<svg width="24" height="24" viewBox="0 0 24 24" fill="none" xmlns="http://www.w3.org/2000/svg">
<g filter="url(#filter0_dd_96_1765)">
<g clip-path="url(#clip0_96_1765)">
<rect x="2" y="1" width="20" height="20" rx="10" fill="#1A2B4C"/>
<g opacity="0.5">
<path opacity="0.32" d="M16.0949 7.56852C16.0883 7.54859 16.0755 7.53125 16.0585 7.51896C16.0415 7.50667 16.021 7.50006 16 7.50006C15.979 7.50006 15.9585 7.50667 15.9415 7.51896C15.9245 7.53125 15.9117 7.54859 15.9051 7.56852L15.8368 7.77359C15.8319 7.78834 15.8236 7.80173 15.8127 7.81272C15.8017 7.8237 15.7883 7.83198 15.7735 7.83688L15.5685 7.90517C15.5485 7.9118 15.5312 7.92453 15.5189 7.94156C15.5066 7.95859 15.5 7.97906 15.5 8.00006C15.5 8.02106 15.5066 8.04153 15.5189 8.05856C15.5312 8.0756 15.5485 8.08833 15.5685 8.09495L15.7735 8.16334C15.7883 8.16823 15.8017 8.17649 15.8126 8.18746C15.8236 8.19843 15.8319 8.21181 15.8368 8.22653L15.9051 8.4316C15.9117 8.45153 15.9245 8.46887 15.9415 8.48116C15.9585 8.49345 15.979 8.50006 16 8.50006C16.021 8.50006 16.0415 8.49345 16.0585 8.48116C16.0755 8.46887 16.0883 8.45153 16.0949 8.4316L16.1632 8.22653C16.1681 8.21179 16.1764 8.19839 16.1873 8.18741C16.1983 8.17642 16.2117 8.16814 16.2265 8.16324L16.4315 8.09495C16.4515 8.08833 16.4688 8.0756 16.4811 8.05856C16.4934 8.04153 16.5 8.02106 16.5 8.00006C16.5 7.97906 16.4934 7.95859 16.4811 7.94156C16.4688 7.92453 16.4515 7.9118 16.4315 7.90517L16.2265 7.83688C16.2117 7.83198 16.1983 7.8237 16.1873 7.81272C16.1764 7.80173 16.1681 7.78834 16.1632 7.77359L16.0949 7.56852Z" fill="white"/>
<g opacity="0.09" filter="url(#filter1_f_96_1765)">
<path d="M18.5949 1.56858C18.5883 1.54865 18.5755 1.53131 18.5585 1.51902C18.5415 1.50674 18.521 1.50012 18.5 1.50012C18.479 1.50012 18.4585 1.50674 18.4415 1.51902C18.4245 1.53131 18.4117 1.54865 18.4051 1.56858L18.3368 1.77365C18.3319 1.7884 18.3236 1.80179 18.3127 1.81278C18.3017 1.82376 18.2883 1.83204 18.2735 1.83695L18.0685 1.90524C18.0485 1.91186 18.0312 1.92459 18.0189 1.94162C18.0066 1.95865 18 1.97912 18 2.00012C18 2.02112 18.0066 2.04159 18.0189 2.05863C18.0312 2.07566 18.0485 2.08839 18.0685 2.09501L18.2735 2.1634C18.2883 2.1683 18.3017 2.17655 18.3126 2.18752C18.3236 2.19849 18.3319 2.21187 18.3368 2.22659L18.4051 2.43166C18.4117 2.45159 18.4245 2.46893 18.4415 2.48122C18.4585 2.49351 18.479 2.50012 18.5 2.50012C18.521 2.50012 18.5415 2.49351 18.5585 2.48122C18.5755 2.46893 18.5883 2.45159 18.5949 2.43166L18.6632 2.22659C18.6681 2.21185 18.6764 2.19845 18.6873 2.18747C18.6983 2.17648 18.7117 2.16821 18.7265 2.1633L18.9315 2.09501C18.9515 2.08839 18.9688 2.07566 18.9811 2.05863C18.9934 2.04159 19 2.02112 19 2.00012C19 1.97912 18.9934 1.95865 18.9811 1.94162C18.9688 1.92459 18.9515 1.91186 18.9315 1.90524L18.7265 1.83695C18.7117 1.83204 18.6983 1.82376 18.6873 1.81278C18.6764 1.80179 18.6681 1.7884 18.6632 1.77365L18.5949 1.56858Z" fill="white"/>
</g>
<path opacity="0.11" d="M7.59489 9.06858C7.58826 9.04865 7.57553 9.03131 7.5585 9.01902C7.54147 9.00674 7.521 9.00012 7.5 9.00012C7.479 9.00012 7.45853 9.00674 7.4415 9.01902C7.42446 9.03131 7.41174 9.04865 7.40511 9.06858L7.33682 9.27365C7.33192 9.2884 7.32364 9.30179 7.31266 9.31278C7.30167 9.32376 7.28827 9.33204 7.27353 9.33695L7.06846 9.40524C7.04853 9.41186 7.03119 9.42459 7.0189 9.44162C7.00661 9.45865 7 9.47912 7 9.50012C7 9.52112 7.00661 9.54159 7.0189 9.55863C7.03119 9.57566 7.04853 9.58839 7.06846 9.59501L7.27353 9.6634C7.28826 9.6683 7.30165 9.67655 7.31264 9.68752C7.32362 9.69849 7.3319 9.71187 7.33682 9.72659L7.40511 9.93166C7.41174 9.95159 7.42446 9.96893 7.4415 9.98122C7.45853 9.99351 7.479 10.0001 7.5 10.0001C7.521 10.0001 7.54147 9.99351 7.5585 9.98122C7.57553 9.96893 7.58826 9.95159 7.59489 9.93166L7.66318 9.72659C7.66808 9.71185 7.67636 9.69845 7.68734 9.68747C7.69833 9.67648 7.71173 9.66821 7.72647 9.6633L7.93154 9.59501C7.95147 9.58839 7.96881 9.57566 7.9811 9.55863C7.99339 9.54159 8 9.52112 8 9.50012C8 9.47912 7.99339 9.45865 7.9811 9.44162C7.96881 9.42459 7.95147 9.41186 7.93154 9.40524L7.72647 9.33695C7.71173 9.33204 7.69833 9.32376 7.68734 9.31278C7.67636 9.30179 7.66808 9.2884 7.66318 9.27365L7.59489 9.06858Z" fill="white"/>
<path opacity="0.45" d="M2.09489 11.5686C2.08826 11.5487 2.07553 11.5313 2.0585 11.519C2.04147 11.5067 2.021 11.5001 2 11.5001C1.979 11.5001 1.95853 11.5067 1.9415 11.519C1.92446 11.5313 1.91174 11.5487 1.90511 11.5686L1.83682 11.7737C1.83192 11.7884 1.82364 11.8018 1.81266 11.8128C1.80167 11.8238 1.78827 11.832 1.77353 11.8369L1.56846 11.9052C1.54853 11.9119 1.53119 11.9246 1.5189 11.9416C1.50661 11.9587 1.5 11.9791 1.5 12.0001C1.5 12.0211 1.50661 12.0416 1.5189 12.0586C1.53119 12.0757 1.54853 12.0884 1.56846 12.095L1.77353 12.1634C1.78826 12.1683 1.80165 12.1766 1.81264 12.1875C1.82362 12.1985 1.8319 12.2119 1.83682 12.2266L1.90511 12.4317C1.91174 12.4516 1.92446 12.4689 1.9415 12.4812C1.95853 12.4935 1.979 12.5001 2 12.5001C2.021 12.5001 2.04147 12.4935 2.0585 12.4812C2.07553 12.4689 2.08826 12.4516 2.09489 12.4317L2.16318 12.2266C2.16808 12.2118 2.17636 12.1985 2.18734 12.1875C2.19833 12.1765 2.21173 12.1682 2.22647 12.1633L2.43154 12.095C2.45147 12.0884 2.46881 12.0757 2.4811 12.0586C2.49339 12.0416 2.5 12.0211 2.5 12.0001C2.5 11.9791 2.49339 11.9587 2.4811 11.9416C2.46881 11.9246 2.45147 11.9119 2.43154 11.9052L2.22647 11.8369C2.21173 11.832 2.19833 11.8238 2.18734 11.8128C2.17636 11.8018 2.16808 11.7884 2.16318 11.7737L2.09489 11.5686Z" fill="white"/>
<path opacity="0.2" d="M17.5949 6.06852C17.5883 6.04859 17.5755 6.03125 17.5585 6.01896C17.5415 6.00667 17.521 6.00006 17.5 6.00006C17.479 6.00006 17.4585 6.00667 17.4415 6.01896C17.4245 6.03125 17.4117 6.04859 17.4051 6.06852L17.3368 6.27359C17.3319 6.28834 17.3236 6.30173 17.3127 6.31272C17.3017 6.3237 17.2883 6.33198 17.2735 6.33688L17.0685 6.40517C17.0485 6.4118 17.0312 6.42453 17.0189 6.44156C17.0066 6.45859 17 6.47906 17 6.50006C17 6.52106 17.0066 6.54153 17.0189 6.55856C17.0312 6.5756 17.0485 6.58833 17.0685 6.59495L17.2735 6.66334C17.2883 6.66823 17.3017 6.67649 17.3126 6.68746C17.3236 6.69843 17.3319 6.71181 17.3368 6.72653L17.4051 6.9316C17.4117 6.95153 17.4245 6.96887 17.4415 6.98116C17.4585 6.99345 17.479 7.00006 17.5 7.00006C17.521 7.00006 17.5415 6.99345 17.5585 6.98116C17.5755 6.96887 17.5883 6.95153 17.5949 6.9316L17.6632 6.72653C17.6681 6.71179 17.6764 6.69839 17.6873 6.68741C17.6983 6.67642 17.7117 6.66814 17.7265 6.66324L17.9315 6.59495C17.9515 6.58833 17.9688 6.5756 17.9811 6.55856C17.9934 6.54153 18 6.52106 18 6.50006C18 6.47906 17.9934 6.45859 17.9811 6.44156C17.9688 6.42453 17.9515 6.4118 17.9315 6.40517L17.7265 6.33688C17.7117 6.33198 17.6983 6.3237 17.6873 6.31272C17.6764 6.30173 17.6681 6.28834 17.6632 6.27359L17.5949 6.06852Z" fill="white"/>
<path opacity="0.32" d="M11.0949 2.06858C11.0883 2.04865 11.0755 2.03131 11.0585 2.01902C11.0415 2.00674 11.021 2.00012 11 2.00012C10.979 2.00012 10.9585 2.00674 10.9415 2.01902C10.9245 2.03131 10.9117 2.04865 10.9051 2.06858L10.8368 2.27365C10.8319 2.2884 10.8236 2.30179 10.8127 2.31278C10.8017 2.32376 10.7883 2.33204 10.7735 2.33695L10.5685 2.40524C10.5485 2.41186 10.5312 2.42459 10.5189 2.44162C10.5066 2.45865 10.5 2.47912 10.5 2.50012C10.5 2.52112 10.5066 2.54159 10.5189 2.55863C10.5312 2.57566 10.5485 2.58839 10.5685 2.59501L10.7735 2.6634C10.7883 2.6683 10.8017 2.67655 10.8126 2.68752C10.8236 2.69849 10.8319 2.71187 10.8368 2.72659L10.9051 2.93166C10.9117 2.95159 10.9245 2.96893 10.9415 2.98122C10.9585 2.99351 10.979 3.00012 11 3.00012C11.021 3.00012 11.0415 2.99351 11.0585 2.98122C11.0755 2.96893 11.0883 2.95159 11.0949 2.93166L11.1632 2.72659C11.1681 2.71185 11.1764 2.69845 11.1873 2.68747C11.1983 2.67648 11.2117 2.66821 11.2265 2.6633L11.4315 2.59501C11.4515 2.58839 11.4688 2.57566 11.4811 2.55863C11.4934 2.54159 11.5 2.52112 11.5 2.50012C11.5 2.47912 11.4934 2.45865 11.4811 2.44162C11.4688 2.42459 11.4515 2.41186 11.4315 2.40524L11.2265 2.33695C11.2117 2.33204 11.1983 2.32376 11.1873 2.31278C11.1764 2.30179 11.1681 2.2884 11.1632 2.27365L11.0949 2.06858Z" fill="white"/>
<g opacity="0.55" filter="url(#filter2_f_96_1765)">
<path d="M15.0949 6.56858C15.0883 6.54865 15.0755 6.53131 15.0585 6.51902C15.0415 6.50674 15.021 6.50012 15 6.50012C14.979 6.50012 14.9585 6.50674 14.9415 6.51902C14.9245 6.53131 14.9117 6.54865 14.9051 6.56858L14.8368 6.77365C14.8319 6.7884 14.8236 6.80179 14.8127 6.81278C14.8017 6.82376 14.7883 6.83204 14.7735 6.83695L14.5685 6.90524C14.5485 6.91186 14.5312 6.92459 14.5189 6.94162C14.5066 6.95865 14.5 6.97912 14.5 7.00012C14.5 7.02112 14.5066 7.04159 14.5189 7.05863C14.5312 7.07566 14.5485 7.08839 14.5685 7.09501L14.7735 7.1634C14.7883 7.1683 14.8017 7.17655 14.8126 7.18752C14.8236 7.19849 14.8319 7.21187 14.8368 7.22659L14.9051 7.43166C14.9117 7.45159 14.9245 7.46893 14.9415 7.48122C14.9585 7.49351 14.979 7.50012 15 7.50012C15.021 7.50012 15.0415 7.49351 15.0585 7.48122C15.0755 7.46893 15.0883 7.45159 15.0949 7.43166L15.1632 7.22659C15.1681 7.21185 15.1764 7.19845 15.1873 7.18747C15.1983 7.17648 15.2117 7.16821 15.2265 7.1633L15.4315 7.09501C15.4515 7.08839 15.4688 7.07566 15.4811 7.05863C15.4934 7.04159 15.5 7.02112 15.5 7.00012C15.5 6.97912 15.4934 6.95865 15.4811 6.94162C15.4688 6.92459 15.4515 6.91186 15.4315 6.90524L15.2265 6.83695C15.2117 6.83204 15.1983 6.82376 15.1873 6.81278C15.1764 6.80179 15.1681 6.7884 15.1632 6.77365L15.0949 6.56858Z" fill="white"/>
</g>
<g opacity="0.31" filter="url(#filter3_f_96_1765)">
<path d="M9.09489 6.56858C9.08826 6.54865 9.07553 6.53131 9.0585 6.51902C9.04147 6.50674 9.021 6.50012 9 6.50012C8.979 6.50012 8.95853 6.50674 8.9415 6.51902C8.92446 6.53131 8.91174 6.54865 8.90511 6.56858L8.83682 6.77365C8.83192 6.7884 8.82364 6.80179 8.81266 6.81278C8.80167 6.82376 8.78827 6.83204 8.77353 6.83695L8.56846 6.90524C8.54853 6.91186 8.53119 6.92459 8.5189 6.94162C8.50661 6.95865 8.5 6.97912 8.5 7.00012C8.5 7.02112 8.50661 7.04159 8.5189 7.05863C8.53119 7.07566 8.54853 7.08839 8.56846 7.09501L8.77353 7.1634C8.78826 7.1683 8.80165 7.17655 8.81264 7.18752C8.82362 7.19849 8.8319 7.21187 8.83682 7.22659L8.90511 7.43166C8.91174 7.45159 8.92446 7.46893 8.9415 7.48122C8.95853 7.49351 8.979 7.50012 9 7.50012C9.021 7.50012 9.04147 7.49351 9.0585 7.48122C9.07553 7.46893 9.08826 7.45159 9.09489 7.43166L9.16318 7.22659C9.16808 7.21185 9.17636 7.19845 9.18734 7.18747C9.19833 7.17648 9.21173 7.16821 9.22647 7.1633L9.43154 7.09501C9.45147 7.08839 9.46881 7.07566 9.4811 7.05863C9.49339 7.04159 9.5 7.02112 9.5 7.00012C9.5 6.97912 9.49339 6.95865 9.4811 6.94162C9.46881 6.92459 9.45147 6.91186 9.43154 6.90524L9.22647 6.83695C9.21173 6.83204 9.19833 6.82376 9.18734 6.81278C9.17636 6.80179 9.16808 6.7884 9.16318 6.77365L9.09489 6.56858Z" fill="white"/>
</g>
<g opacity="0.17" filter="url(#filter4_f_96_1765)">
<path d="M14.5949 2.06858C14.5883 2.04865 14.5755 2.03131 14.5585 2.01902C14.5415 2.00674 14.521 2.00012 14.5 2.00012C14.479 2.00012 14.4585 2.00674 14.4415 2.01902C14.4245 2.03131 14.4117 2.04865 14.4051 2.06858L14.3368 2.27365C14.3319 2.2884 14.3236 2.30179 14.3127 2.31278C14.3017 2.32376 14.2883 2.33204 14.2735 2.33695L14.0685 2.40524C14.0485 2.41186 14.0312 2.42459 14.0189 2.44162C14.0066 2.45865 14 2.47912 14 2.50012C14 2.52112 14.0066 2.54159 14.0189 2.55863C14.0312 2.57566 14.0485 2.58839 14.0685 2.59501L14.2735 2.6634C14.2883 2.6683 14.3017 2.67655 14.3126 2.68752C14.3236 2.69849 14.3319 2.71187 14.3368 2.72659L14.4051 2.93166C14.4117 2.95159 14.4245 2.96893 14.4415 2.98122C14.4585 2.99351 14.479 3.00012 14.5 3.00012C14.521 3.00012 14.5415 2.99351 14.5585 2.98122C14.5755 2.96893 14.5883 2.95159 14.5949 2.93166L14.6632 2.72659C14.6681 2.71185 14.6764 2.69845 14.6873 2.68747C14.6983 2.67648 14.7117 2.66821 14.7265 2.6633L14.9315 2.59501C14.9515 2.58839 14.9688 2.57566 14.9811 2.55863C14.9934 2.54159 15 2.52112 15 2.50012C15 2.47912 14.9934 2.45865 14.9811 2.44162C14.9688 2.42459 14.9515 2.41186 14.9315 2.40524L14.7265 2.33695C14.7117 2.33204 14.6983 2.32376 14.6873 2.31278C14.6764 2.30179 14.6681 2.2884 14.6632 2.27365L14.5949 2.06858Z" fill="white"/>
</g>
<path opacity="0.33" d="M5.09489 5.56858C5.08826 5.54865 5.07553 5.53131 5.0585 5.51902C5.04147 5.50674 5.021 5.50012 5 5.50012C4.979 5.50012 4.95853 5.50674 4.9415 5.51902C4.92446 5.53131 4.91174 5.54865 4.90511 5.56858L4.83682 5.77365C4.83192 5.7884 4.82364 5.80179 4.81266 5.81278C4.80167 5.82376 4.78827 5.83204 4.77353 5.83695L4.56846 5.90524C4.54853 5.91186 4.53119 5.92459 4.5189 5.94162C4.50661 5.95865 4.5 5.97912 4.5 6.00012C4.5 6.02112 4.50661 6.04159 4.5189 6.05863C4.53119 6.07566 4.54853 6.08839 4.56846 6.09501L4.77353 6.1634C4.78826 6.1683 4.80165 6.17655 4.81264 6.18752C4.82362 6.19849 4.8319 6.21187 4.83682 6.22659L4.90511 6.43166C4.91174 6.45159 4.92446 6.46893 4.9415 6.48122C4.95853 6.49351 4.979 6.50012 5 6.50012C5.021 6.50012 5.04147 6.49351 5.0585 6.48122C5.07553 6.46893 5.08826 6.45159 5.09489 6.43166L5.16318 6.22659C5.16808 6.21185 5.17636 6.19845 5.18734 6.18747C5.19833 6.17648 5.21173 6.16821 5.22647 6.1633L5.43154 6.09501C5.45147 6.08839 5.46881 6.07566 5.4811 6.05863C5.49339 6.04159 5.5 6.02112 5.5 6.00012C5.5 5.97912 5.49339 5.95865 5.4811 5.94162C5.46881 5.92459 5.45147 5.91186 5.43154 5.90524L5.22647 5.83695C5.21173 5.83204 5.19833 5.82376 5.18734 5.81278C5.17636 5.80179 5.16808 5.7884 5.16318 5.77365L5.09489 5.56858Z" fill="white"/>
<g opacity="0.21" filter="url(#filter5_f_96_1765)">
<path d="M13.5949 8.06852C13.5883 8.04859 13.5755 8.03125 13.5585 8.01896C13.5415 8.00667 13.521 8.00006 13.5 8.00006C13.479 8.00006 13.4585 8.00667 13.4415 8.01896C13.4245 8.03125 13.4117 8.04859 13.4051 8.06852L13.3368 8.27359C13.3319 8.28834 13.3236 8.30173 13.3127 8.31272C13.3017 8.3237 13.2883 8.33198 13.2735 8.33688L13.0685 8.40517C13.0485 8.4118 13.0312 8.42453 13.0189 8.44156C13.0066 8.45859 13 8.47906 13 8.50006C13 8.52106 13.0066 8.54153 13.0189 8.55856C13.0312 8.5756 13.0485 8.58833 13.0685 8.59495L13.2735 8.66334C13.2883 8.66823 13.3017 8.67649 13.3126 8.68746C13.3236 8.69843 13.3319 8.71181 13.3368 8.72653L13.4051 8.9316C13.4117 8.95153 13.4245 8.96887 13.4415 8.98116C13.4585 8.99345 13.479 9.00006 13.5 9.00006C13.521 9.00006 13.5415 8.99345 13.5585 8.98116C13.5755 8.96887 13.5883 8.95153 13.5949 8.9316L13.6632 8.72653C13.6681 8.71179 13.6764 8.69839 13.6873 8.68741C13.6983 8.67642 13.7117 8.66814 13.7265 8.66324L13.9315 8.59495C13.9515 8.58833 13.9688 8.5756 13.9811 8.55856C13.9934 8.54153 14 8.52106 14 8.50006C14 8.47906 13.9934 8.45859 13.9811 8.44156C13.9688 8.42453 13.9515 8.4118 13.9315 8.40517L13.7265 8.33688C13.7117 8.33198 13.6983 8.3237 13.6873 8.31272C13.6764 8.30173 13.6681 8.28834 13.6632 8.27359L13.5949 8.06852Z" fill="white"/>
</g>
<path opacity="0.17" d="M16.5949 9.56858C16.5883 9.54865 16.5755 9.53131 16.5585 9.51902C16.5415 9.50674 16.521 9.50012 16.5 9.50012C16.479 9.50012 16.4585 9.50674 16.4415 9.51902C16.4245 9.53131 16.4117 9.54865 16.4051 9.56858L16.3368 9.77365C16.3319 9.7884 16.3236 9.80179 16.3127 9.81278C16.3017 9.82376 16.2883 9.83204 16.2735 9.83695L16.0685 9.90524C16.0485 9.91186 16.0312 9.92459 16.0189 9.94162C16.0066 9.95865 16 9.97912 16 10.0001C16 10.0211 16.0066 10.0416 16.0189 10.0586C16.0312 10.0757 16.0485 10.0884 16.0685 10.095L16.2735 10.1634C16.2883 10.1683 16.3017 10.1766 16.3126 10.1875C16.3236 10.1985 16.3319 10.2119 16.3368 10.2266L16.4051 10.4317C16.4117 10.4516 16.4245 10.4689 16.4415 10.4812C16.4585 10.4935 16.479 10.5001 16.5 10.5001C16.521 10.5001 16.5415 10.4935 16.5585 10.4812C16.5755 10.4689 16.5883 10.4516 16.5949 10.4317L16.6632 10.2266C16.6681 10.2118 16.6764 10.1985 16.6873 10.1875C16.6983 10.1765 16.7117 10.1682 16.7265 10.1633L16.9315 10.095C16.9515 10.0884 16.9688 10.0757 16.9811 10.0586C16.9934 10.0416 17 10.0211 17 10.0001C17 9.97912 16.9934 9.95865 16.9811 9.94162C16.9688 9.92459 16.9515 9.91186 16.9315 9.90524L16.7265 9.83695C16.7117 9.83204 16.6983 9.82376 16.6873 9.81278C16.6764 9.80179 16.6681 9.7884 16.6632 9.77365L16.5949 9.56858Z" fill="white"/>
<g opacity="0.44" filter="url(#filter6_f_96_1765)">
<path d="M7.09489 5.06852C7.08826 5.04859 7.07553 5.03125 7.0585 5.01896C7.04147 5.00667 7.021 5.00006 7 5.00006C6.979 5.00006 6.95853 5.00667 6.9415 5.01896C6.92446 5.03125 6.91174 5.04859 6.90511 5.06852L6.83682 5.27359C6.83192 5.28834 6.82364 5.30173 6.81266 5.31272C6.80167 5.3237 6.78827 5.33198 6.77353 5.33688L6.56846 5.40517C6.54853 5.4118 6.53119 5.42453 6.5189 5.44156C6.50661 5.45859 6.5 5.47906 6.5 5.50006C6.5 5.52106 6.50661 5.54153 6.5189 5.55856C6.53119 5.5756 6.54853 5.58833 6.56846 5.59495L6.77353 5.66334C6.78826 5.66823 6.80165 5.67649 6.81264 5.68746C6.82362 5.69843 6.8319 5.71181 6.83682 5.72653L6.90511 5.9316C6.91174 5.95153 6.92446 5.96887 6.9415 5.98116C6.95853 5.99345 6.979 6.00006 7 6.00006C7.021 6.00006 7.04147 5.99345 7.0585 5.98116C7.07553 5.96887 7.08826 5.95153 7.09489 5.9316L7.16318 5.72653C7.16808 5.71179 7.17636 5.69839 7.18734 5.68741C7.19833 5.67642 7.21173 5.66814 7.22647 5.66324L7.43154 5.59495C7.45147 5.58833 7.46881 5.5756 7.4811 5.55856C7.49339 5.54153 7.5 5.52106 7.5 5.50006C7.5 5.47906 7.49339 5.45859 7.4811 5.44156C7.46881 5.42453 7.45147 5.4118 7.43154 5.40517L7.22647 5.33688C7.21173 5.33198 7.19833 5.3237 7.18734 5.31272C7.17636 5.30173 7.16808 5.28834 7.16318 5.27359L7.09489 5.06852Z" fill="white"/>
</g>
<g opacity="0.41" filter="url(#filter7_f_96_1765)">
<path d="M9.09489 12.5685C9.08826 12.5486 9.07553 12.5313 9.0585 12.519C9.04147 12.5067 9.021 12.5001 9 12.5001C8.979 12.5001 8.95853 12.5067 8.9415 12.519C8.92446 12.5313 8.91174 12.5486 8.90511 12.5685L8.83682 12.7736C8.83192 12.7883 8.82364 12.8017 8.81266 12.8127C8.80167 12.8237 8.78827 12.832 8.77353 12.8369L8.56846 12.9052C8.54853 12.9118 8.53119 12.9245 8.5189 12.9416C8.50661 12.9586 8.5 12.9791 8.5 13.0001C8.5 13.0211 8.50661 13.0415 8.5189 13.0586C8.53119 13.0756 8.54853 13.0883 8.56846 13.0949L8.77353 13.1633C8.78826 13.1682 8.80165 13.1765 8.81264 13.1875C8.82362 13.1984 8.8319 13.2118 8.83682 13.2265L8.90511 13.4316C8.91174 13.4515 8.92446 13.4689 8.9415 13.4812C8.95853 13.4934 8.979 13.5001 9 13.5001C9.021 13.5001 9.04147 13.4934 9.0585 13.4812C9.07553 13.4689 9.08826 13.4515 9.09489 13.4316L9.16318 13.2265C9.16808 13.2118 9.17636 13.1984 9.18734 13.1874C9.19833 13.1764 9.21173 13.1681 9.22647 13.1632L9.43154 13.0949C9.45147 13.0883 9.46881 13.0756 9.4811 13.0586C9.49339 13.0415 9.5 13.0211 9.5 13.0001C9.5 12.9791 9.49339 12.9586 9.4811 12.9416C9.46881 12.9245 9.45147 12.9118 9.43154 12.9052L9.22647 12.8369C9.21173 12.832 9.19833 12.8237 9.18734 12.8127C9.17636 12.8017 9.16808 12.7883 9.16318 12.7736L9.09489 12.5685Z" fill="white"/>
</g>
<path opacity="0.09" d="M11.0949 8.56852C11.0883 8.54859 11.0755 8.53125 11.0585 8.51896C11.0415 8.50667 11.021 8.50006 11 8.50006C10.979 8.50006 10.9585 8.50667 10.9415 8.51896C10.9245 8.53125 10.9117 8.54859 10.9051 8.56852L10.8368 8.77359C10.8319 8.78834 10.8236 8.80173 10.8127 8.81272C10.8017 8.8237 10.7883 8.83198 10.7735 8.83688L10.5685 8.90517C10.5485 8.9118 10.5312 8.92453 10.5189 8.94156C10.5066 8.95859 10.5 8.97906 10.5 9.00006C10.5 9.02106 10.5066 9.04153 10.5189 9.05856C10.5312 9.0756 10.5485 9.08833 10.5685 9.09495L10.7735 9.16334C10.7883 9.16823 10.8017 9.17649 10.8126 9.18746C10.8236 9.19843 10.8319 9.21181 10.8368 9.22653L10.9051 9.4316C10.9117 9.45153 10.9245 9.46887 10.9415 9.48116C10.9585 9.49345 10.979 9.50006 11 9.50006C11.021 9.50006 11.0415 9.49345 11.0585 9.48116C11.0755 9.46887 11.0883 9.45153 11.0949 9.4316L11.1632 9.22653C11.1681 9.21179 11.1764 9.19839 11.1873 9.18741C11.1983 9.17642 11.2117 9.16814 11.2265 9.16324L11.4315 9.09495C11.4515 9.08833 11.4688 9.0756 11.4811 9.05856C11.4934 9.04153 11.5 9.02106 11.5 9.00006C11.5 8.97906 11.4934 8.95859 11.4811 8.94156C11.4688 8.92453 11.4515 8.9118 11.4315 8.90517L11.2265 8.83688C11.2117 8.83198 11.1983 8.8237 11.1873 8.81272C11.1764 8.80173 11.1681 8.78834 11.1632 8.77359L11.0949 8.56852Z" fill="white"/>
<path opacity="0.15" d="M21.0949 8.06852C21.0883 8.04859 21.0755 8.03125 21.0585 8.01896C21.0415 8.00667 21.021 8.00006 21 8.00006C20.979 8.00006 20.9585 8.00667 20.9415 8.01896C20.9245 8.03125 20.9117 8.04859 20.9051 8.06852L20.8368 8.27359C20.8319 8.28834 20.8236 8.30173 20.8127 8.31272C20.8017 8.3237 20.7883 8.33198 20.7735 8.33688L20.5685 8.40517C20.5485 8.4118 20.5312 8.42453 20.5189 8.44156C20.5066 8.45859 20.5 8.47906 20.5 8.50006C20.5 8.52106 20.5066 8.54153 20.5189 8.55856C20.5312 8.5756 20.5485 8.58833 20.5685 8.59495L20.7735 8.66334C20.7883 8.66823 20.8017 8.67649 20.8126 8.68746C20.8236 8.69843 20.8319 8.71181 20.8368 8.72653L20.9051 8.9316C20.9117 8.95153 20.9245 8.96887 20.9415 8.98116C20.9585 8.99345 20.979 9.00006 21 9.00006C21.021 9.00006 21.0415 8.99345 21.0585 8.98116C21.0755 8.96887 21.0883 8.95153 21.0949 8.9316L21.1632 8.72653C21.1681 8.71179 21.1764 8.69839 21.1873 8.68741C21.1983 8.67642 21.2117 8.66814 21.2265 8.66324L21.4315 8.59495C21.4515 8.58833 21.4688 8.5756 21.4811 8.55856C21.4934 8.54153 21.5 8.52106 21.5 8.50006C21.5 8.47906 21.4934 8.45859 21.4811 8.44156C21.4688 8.42453 21.4515 8.4118 21.4315 8.40517L21.2265 8.33688C21.2117 8.33198 21.1983 8.3237 21.1873 8.31272C21.1764 8.30173 21.1681 8.28834 21.1632 8.27359L21.0949 8.06852Z" fill="white"/>
</g>
<g filter="url(#filter8_f_96_1765)">
<path d="M4 6.5H20L16.5217 21H7.47826L4 6.5Z" fill="url(#paint0_linear_96_1765)" fill-opacity="0.4"/>
</g>
<g filter="url(#filter9_f_96_1765)">
<ellipse cx="12" cy="21.2499" rx="7.5" ry="1.75" fill="#6686C3"/>
</g>
<g filter="url(#filter10_f_96_1765)">
<ellipse cx="11.9995" cy="21.25" rx="3.5" ry="0.75" fill="#BDD4FF"/>
</g>
<g filter="url(#filter11_f_96_1765)">
<ellipse cx="11.9995" cy="21.5" rx="3.5" ry="0.5" fill="#BDD4FF"/>
</g>
<g filter="url(#filter12_d_96_1765)">
<path d="M7.43945 14.027C8.12755 10.9824 9.59776 8.16987 11.705 5.86705C11.7424 5.82629 11.7879 5.79374 11.8386 5.77149C11.8893 5.74923 11.9441 5.73773 11.9995 5.73773C12.0548 5.73773 12.1096 5.74923 12.1603 5.77149C12.211 5.79374 12.2565 5.82629 12.294 5.86705C12.377 5.95705 12.446 6.03305 12.5005 6.09455C14.4987 8.35548 15.8948 11.0837 16.5595 14.027C15.489 14.2525 14.3895 14.4005 13.2675 14.464L12.223 16.553C12.2022 16.5945 12.1703 16.6294 12.1308 16.6538C12.0913 16.6781 12.0458 16.691 11.9995 16.691C11.9531 16.691 11.9076 16.6781 11.8681 16.6538C11.8286 16.6294 11.7967 16.5945 11.776 16.553L10.7315 14.464C9.62468 14.4015 8.52422 14.2554 7.43945 14.027V14.027ZM11.9995 12.5C12.3973 12.5 12.7788 12.342 13.0601 12.0607C13.3414 11.7794 13.4995 11.3979 13.4995 11C13.4995 10.6022 13.3414 10.2207 13.0601 9.93939C12.7788 9.65808 12.3973 9.50005 11.9995 9.50005C11.6016 9.50005 11.2201 9.65808 10.9388 9.93939C10.6575 10.2207 10.4995 10.6022 10.4995 11C10.4995 11.3979 10.6575 11.7794 10.9388 12.0607C11.2201 12.342 11.6016 12.5 11.9995 12.5V12.5Z" fill="url(#paint1_radial_96_1765)" shape-rendering="crispEdges"/>
<path d="M16.4091 13.9306C15.384 14.1403 14.3325 14.2786 13.2604 14.3392L13.1881 14.3433L13.1556 14.4081L12.1112 16.497C12.1008 16.5178 12.0849 16.5352 12.0651 16.5474C12.0454 16.5596 12.0226 16.566 11.9995 16.566C11.9763 16.566 11.9535 16.5596 11.9338 16.5474C11.9141 16.5352 11.8981 16.5178 11.8877 16.497L10.8433 14.4081L10.8109 14.3433L10.7385 14.3392C9.68039 14.2794 8.62808 14.1429 7.58987 13.9306C8.28476 10.9548 9.73329 8.20692 11.7972 5.95143L11.705 5.86705L11.797 5.95164C11.8227 5.92361 11.854 5.90124 11.8889 5.88594C11.9237 5.87063 11.9614 5.86273 11.9995 5.86273C12.0375 5.86273 12.0752 5.87063 12.11 5.88594C12.1449 5.90124 12.1762 5.92361 12.2019 5.95164L12.2021 5.95179C12.2847 6.04142 12.3531 6.11673 12.4068 6.17737L16.4091 13.9306ZM11.9995 12.625C12.4304 12.625 12.8438 12.4538 13.1485 12.1491C13.4532 11.8443 13.6245 11.431 13.6245 11C13.6245 10.5691 13.4532 10.1557 13.1485 9.851C12.8438 9.54625 12.4304 9.37505 11.9995 9.37505C11.5685 9.37505 11.1552 9.54625 10.8504 9.851C10.5457 10.1557 10.3745 10.5691 10.3745 11C10.3745 11.431 10.5457 11.8443 10.8504 12.1491C11.1552 12.4538 11.5685 12.625 11.9995 12.625Z" stroke="url(#paint2_linear_96_1765)" stroke-width="0.25" shape-rendering="crispEdges"/>
</g>
</g>
<rect x="2.25" y="1.25" width="19.5" height="19.5" rx="9.75" stroke="url(#paint3_linear_96_1765)" stroke-opacity="0.3" stroke-width="0.5"/>
</g>
<defs>
<filter id="filter0_dd_96_1765" x="-8.9407e-08" y="-2.68221e-07" width="24" height="24" filterUnits="userSpaceOnUse" color-interpolation-filters="sRGB">
<feFlood flood-opacity="0" result="BackgroundImageFix"/>
<feColorMatrix in="SourceAlpha" type="matrix" values="0 0 0 0 0 0 0 0 0 0 0 0 0 0 0 0 0 0 127 0" result="hardAlpha"/>
<feMorphology radius="0.5" operator="dilate" in="SourceAlpha" result="effect1_dropShadow_96_1765"/>
<feOffset/>
<feComposite in2="hardAlpha" operator="out"/>
<feColorMatrix type="matrix" values="0 0 0 0 0.809849 0 0 0 0 0.84117 0 0 0 0 0.901969 0 0 0 1 0"/>
<feBlend mode="normal" in2="BackgroundImageFix" result="effect1_dropShadow_96_1765"/>
<feColorMatrix in="SourceAlpha" type="matrix" values="0 0 0 0 0 0 0 0 0 0 0 0 0 0 0 0 0 0 127 0" result="hardAlpha"/>
<feMorphology radius="0.5" operator="erode" in="SourceAlpha" result="effect2_dropShadow_96_1765"/>
<feOffset dy="1"/>
<feGaussianBlur stdDeviation="1.25"/>
<feComposite in2="hardAlpha" operator="out"/>
<feColorMatrix type="matrix" values="0 0 0 0 0.161857 0 0 0 0 0.171682 0 0 0 0 0.197884 0 0 0 0.5 0"/>
<feBlend mode="normal" in2="effect1_dropShadow_96_1765" result="effect2_dropShadow_96_1765"/>
<feBlend mode="normal" in="SourceGraphic" in2="effect2_dropShadow_96_1765" result="shape"/>
</filter>
<filter id="filter1_f_96_1765" x="17.5" y="1.00012" width="2" height="2" filterUnits="userSpaceOnUse" color-interpolation-filters="sRGB">
<feFlood flood-opacity="0" result="BackgroundImageFix"/>
<feBlend mode="normal" in="SourceGraphic" in2="BackgroundImageFix" result="shape"/>
<feGaussianBlur stdDeviation="0.25" result="effect1_foregroundBlur_96_1765"/>
</filter>
<filter id="filter2_f_96_1765" x="14" y="6.00012" width="2" height="2" filterUnits="userSpaceOnUse" color-interpolation-filters="sRGB">
<feFlood flood-opacity="0" result="BackgroundImageFix"/>
<feBlend mode="normal" in="SourceGraphic" in2="BackgroundImageFix" result="shape"/>
<feGaussianBlur stdDeviation="0.25" result="effect1_foregroundBlur_96_1765"/>
</filter>
<filter id="filter3_f_96_1765" x="8" y="6.00012" width="2" height="2" filterUnits="userSpaceOnUse" color-interpolation-filters="sRGB">
<feFlood flood-opacity="0" result="BackgroundImageFix"/>
<feBlend mode="normal" in="SourceGraphic" in2="BackgroundImageFix" result="shape"/>
<feGaussianBlur stdDeviation="0.25" result="effect1_foregroundBlur_96_1765"/>
</filter>
<filter id="filter4_f_96_1765" x="13.5" y="1.50012" width="2" height="2" filterUnits="userSpaceOnUse" color-interpolation-filters="sRGB">
<feFlood flood-opacity="0" result="BackgroundImageFix"/>
<feBlend mode="normal" in="SourceGraphic" in2="BackgroundImageFix" result="shape"/>
<feGaussianBlur stdDeviation="0.25" result="effect1_foregroundBlur_96_1765"/>
</filter>
<filter id="filter5_f_96_1765" x="12.5" y="7.50006" width="2" height="2" filterUnits="userSpaceOnUse" color-interpolation-filters="sRGB">
<feFlood flood-opacity="0" result="BackgroundImageFix"/>
<feBlend mode="normal" in="SourceGraphic" in2="BackgroundImageFix" result="shape"/>
<feGaussianBlur stdDeviation="0.25" result="effect1_foregroundBlur_96_1765"/>
</filter>
<filter id="filter6_f_96_1765" x="6" y="4.50006" width="2" height="2" filterUnits="userSpaceOnUse" color-interpolation-filters="sRGB">
<feFlood flood-opacity="0" result="BackgroundImageFix"/>
<feBlend mode="normal" in="SourceGraphic" in2="BackgroundImageFix" result="shape"/>
<feGaussianBlur stdDeviation="0.25" result="effect1_foregroundBlur_96_1765"/>
</filter>
<filter id="filter7_f_96_1765" x="8" y="12.0001" width="2" height="2" filterUnits="userSpaceOnUse" color-interpolation-filters="sRGB">
<feFlood flood-opacity="0" result="BackgroundImageFix"/>
<feBlend mode="normal" in="SourceGraphic" in2="BackgroundImageFix" result="shape"/>
<feGaussianBlur stdDeviation="0.25" result="effect1_foregroundBlur_96_1765"/>
</filter>
<filter id="filter8_f_96_1765" x="3" y="5.5" width="18" height="16.5" filterUnits="userSpaceOnUse" color-interpolation-filters="sRGB">
<feFlood flood-opacity="0" result="BackgroundImageFix"/>
<feBlend mode="normal" in="SourceGraphic" in2="BackgroundImageFix" result="shape"/>
<feGaussianBlur stdDeviation="0.5" result="effect1_foregroundBlur_96_1765"/>
</filter>
<filter id="filter9_f_96_1765" x="2" y="16.9999" width="20" height="8.5" filterUnits="userSpaceOnUse" color-interpolation-filters="sRGB">
<feFlood flood-opacity="0" result="BackgroundImageFix"/>
<feBlend mode="normal" in="SourceGraphic" in2="BackgroundImageFix" result="shape"/>
<feGaussianBlur stdDeviation="1.25" result="effect1_foregroundBlur_96_1765"/>
</filter>
<filter id="filter10_f_96_1765" x="6.99951" y="19" width="10" height="4.5" filterUnits="userSpaceOnUse" color-interpolation-filters="sRGB">
<feFlood flood-opacity="0" result="BackgroundImageFix"/>
<feBlend mode="normal" in="SourceGraphic" in2="BackgroundImageFix" result="shape"/>
<feGaussianBlur stdDeviation="0.75" result="effect1_foregroundBlur_96_1765"/>
</filter>
<filter id="filter11_f_96_1765" x="6.99951" y="19.5" width="10" height="4" filterUnits="userSpaceOnUse" color-interpolation-filters="sRGB">
<feFlood flood-opacity="0" result="BackgroundImageFix"/>
<feBlend mode="normal" in="SourceGraphic" in2="BackgroundImageFix" result="shape"/>
<feGaussianBlur stdDeviation="0.75" result="effect1_foregroundBlur_96_1765"/>
</filter>
<filter id="filter12_d_96_1765" x="3.93945" y="3.73773" width="16.1201" height="17.9533" filterUnits="userSpaceOnUse" color-interpolation-filters="sRGB">
<feFlood flood-opacity="0" result="BackgroundImageFix"/>
<feColorMatrix in="SourceAlpha" type="matrix" values="0 0 0 0 0 0 0 0 0 0 0 0 0 0 0 0 0 0 127 0" result="hardAlpha"/>
<feOffset dy="1.5"/>
<feGaussianBlur stdDeviation="1.75"/>
<feComposite in2="hardAlpha" operator="out"/>
<feColorMatrix type="matrix" values="0 0 0 0 0 0 0 0 0 0 0 0 0 0 0 0 0 0 0.18 0"/>
<feBlend mode="normal" in2="BackgroundImageFix" result="effect1_dropShadow_96_1765"/>
<feBlend mode="normal" in="SourceGraphic" in2="effect1_dropShadow_96_1765" result="shape"/>
</filter>
<linearGradient id="paint0_linear_96_1765" x1="12" y1="6.5" x2="11.7578" y2="18.5003" gradientUnits="userSpaceOnUse">
<stop stop-color="#597AB9" stop-opacity="0"/>
<stop offset="1" stop-color="#496395"/>
</linearGradient>
<radialGradient id="paint1_radial_96_1765" cx="0" cy="0" r="1" gradientUnits="userSpaceOnUse" gradientTransform="translate(11.9995 5.21615) rotate(90) scale(19.0379 15.8514)">
<stop stop-color="white"/>
<stop offset="1" stop-color="white" stop-opacity="0"/>
</radialGradient>
<linearGradient id="paint2_linear_96_1765" x1="11.9995" y1="5.73773" x2="11.9995" y2="16.691" gradientUnits="userSpaceOnUse">
<stop offset="0.735221" stop-color="white" stop-opacity="0"/>
<stop offset="1" stop-color="white" stop-opacity="0.8"/>
</linearGradient>
<linearGradient id="paint3_linear_96_1765" x1="12" y1="1" x2="12" y2="21" gradientUnits="userSpaceOnUse">
<stop stop-color="white"/>
<stop offset="0.510417" stop-color="white" stop-opacity="0"/>
</linearGradient>
<clipPath id="clip0_96_1765">
<rect x="2" y="1" width="20" height="20" rx="10" fill="white"/>
</clipPath>
</defs>
</svg>
