<svg width="48" height="48" viewBox="0 0 48 48" fill="none" xmlns="http://www.w3.org/2000/svg">
<g filter="url(#filter0_ddi_82_185)">
<rect x="4" y="2" width="40" height="40" rx="20" fill="#F8F8F8"/>
<rect x="4" y="2" width="40" height="40" rx="20" fill="url(#paint0_linear_82_185)" fill-opacity="0.03"/>
<rect x="6.00049" y="4.00003" width="36" height="36" rx="6" fill="url(#paint1_linear_82_185)"/>
<g filter="url(#filter1_di_82_185)">
<path d="M14 21H34V30C34 30.2652 33.8946 30.5196 33.7071 30.7071C33.5196 30.8946 33.2652 31 33 31H15C14.7348 31 14.4804 30.8946 14.2929 30.7071C14.1054 30.5196 14 30.2652 14 30V21ZM29 13H33C33.2652 13 33.5196 13.1054 33.7071 13.2929C33.8946 13.4804 34 13.7348 34 14V19H14V14C14 13.7348 14.1054 13.4804 14.2929 13.2929C14.4804 13.1054 14.7348 13 15 13H19V11H21V13H27V11H29V13Z" fill="#DCDCDC"/>
</g>
</g>
<defs>
<filter id="filter0_ddi_82_185" x="-5.96046e-08" y="-2" width="48" height="50" filterUnits="userSpaceOnUse" color-interpolation-filters="sRGB">
<feFlood flood-opacity="0" result="BackgroundImageFix"/>
<feColorMatrix in="SourceAlpha" type="matrix" values="0 0 0 0 0 0 0 0 0 0 0 0 0 0 0 0 0 0 127 0" result="hardAlpha"/>
<feMorphology radius="0.5" operator="dilate" in="SourceAlpha" result="effect1_dropShadow_82_185"/>
<feOffset/>
<feComposite in2="hardAlpha" operator="out"/>
<feColorMatrix type="matrix" values="0 0 0 0 0.923307 0 0 0 0 0.923307 0 0 0 0 0.923307 0 0 0 1 0"/>
<feBlend mode="normal" in2="BackgroundImageFix" result="effect1_dropShadow_82_185"/>
<feColorMatrix in="SourceAlpha" type="matrix" values="0 0 0 0 0 0 0 0 0 0 0 0 0 0 0 0 0 0 127 0" result="hardAlpha"/>
<feMorphology radius="1" operator="erode" in="SourceAlpha" result="effect2_dropShadow_82_185"/>
<feOffset dy="2"/>
<feGaussianBlur stdDeviation="2.5"/>
<feComposite in2="hardAlpha" operator="out"/>
<feColorMatrix type="matrix" values="0 0 0 0 0.161857 0 0 0 0 0.171682 0 0 0 0 0.197884 0 0 0 0.2 0"/>
<feBlend mode="normal" in2="effect1_dropShadow_82_185" result="effect2_dropShadow_82_185"/>
<feBlend mode="normal" in="SourceGraphic" in2="effect2_dropShadow_82_185" result="shape"/>
<feColorMatrix in="SourceAlpha" type="matrix" values="0 0 0 0 0 0 0 0 0 0 0 0 0 0 0 0 0 0 127 0" result="hardAlpha"/>
<feMorphology radius="1" operator="dilate" in="SourceAlpha" result="effect3_innerShadow_82_185"/>
<feOffset dy="-4"/>
<feGaussianBlur stdDeviation="3"/>
<feComposite in2="hardAlpha" operator="arithmetic" k2="-1" k3="1"/>
<feColorMatrix type="matrix" values="0 0 0 0 0.87451 0 0 0 0 0.87451 0 0 0 0 0.87451 0 0 0 0.7 0"/>
<feBlend mode="normal" in2="shape" result="effect3_innerShadow_82_185"/>
</filter>
<filter id="filter1_di_82_185" x="14" y="11" width="20" height="20.5" filterUnits="userSpaceOnUse" color-interpolation-filters="sRGB">
<feFlood flood-opacity="0" result="BackgroundImageFix"/>
<feColorMatrix in="SourceAlpha" type="matrix" values="0 0 0 0 0 0 0 0 0 0 0 0 0 0 0 0 0 0 127 0" result="hardAlpha"/>
<feOffset dy="0.5"/>
<feComposite in2="hardAlpha" operator="out"/>
<feColorMatrix type="matrix" values="0 0 0 0 1 0 0 0 0 1 0 0 0 0 1 0 0 0 1 0"/>
<feBlend mode="normal" in2="BackgroundImageFix" result="effect1_dropShadow_82_185"/>
<feBlend mode="normal" in="SourceGraphic" in2="effect1_dropShadow_82_185" result="shape"/>
<feColorMatrix in="SourceAlpha" type="matrix" values="0 0 0 0 0 0 0 0 0 0 0 0 0 0 0 0 0 0 127 0" result="hardAlpha"/>
<feOffset dy="0.3"/>
<feComposite in2="hardAlpha" operator="arithmetic" k2="-1" k3="1"/>
<feColorMatrix type="matrix" values="0 0 0 0 0 0 0 0 0 0 0 0 0 0 0 0 0 0 0.15 0"/>
<feBlend mode="normal" in2="shape" result="effect2_innerShadow_82_185"/>
</filter>
<linearGradient id="paint0_linear_82_185" x1="24" y1="2" x2="24" y2="42" gradientUnits="userSpaceOnUse">
<stop offset="0.328125" stop-opacity="0"/>
<stop offset="1"/>
</linearGradient>
<linearGradient id="paint1_linear_82_185" x1="24.0005" y1="4.00003" x2="24.0005" y2="40" gradientUnits="userSpaceOnUse">
<stop stop-color="white"/>
<stop offset="1" stop-color="white" stop-opacity="0"/>
</linearGradient>
</defs>
</svg>
