<svg width="24" height="25" viewBox="0 0 24 25" fill="none" xmlns="http://www.w3.org/2000/svg">
<g clip-path="url(#clip0_160_11215)">
<g clip-path="url(#clip1_160_11215)">
<path d="M9.74994 20.9501L11.2229 21.7684C11.5065 21.926 11.6483 22.0047 11.7985 22.0356C11.9314 22.063 12.0684 22.063 12.2014 22.0356C12.3515 22.0047 12.4933 21.926 12.7769 21.7684L14.2499 20.9501M5.24994 18.4501L3.82291 17.6573C3.5234 17.4909 3.37362 17.4077 3.26457 17.2893C3.1681 17.1847 3.09509 17.0606 3.05042 16.9254C2.99994 16.7726 2.99994 16.6013 2.99994 16.2586V14.7001M2.99994 9.70004V8.14148C2.99994 7.79884 2.99994 7.62752 3.05042 7.47472C3.09509 7.33954 3.1681 7.21546 3.26457 7.11077C3.37362 6.99243 3.52339 6.90923 3.82291 6.74283L5.24994 5.95004M9.74994 3.45003L11.2229 2.63172C11.5065 2.47416 11.6483 2.39538 11.7985 2.36449C11.9314 2.33716 12.0684 2.33716 12.2014 2.36449C12.3515 2.39538 12.4933 2.47416 12.7769 2.63172L14.2499 3.45003M18.7499 5.95003L20.1769 6.74283C20.4765 6.90923 20.6262 6.99243 20.7353 7.11077C20.8317 7.21546 20.9048 7.33954 20.9494 7.47472C20.9999 7.62752 20.9999 7.79884 20.9999 8.14148V9.70003M20.9999 14.7001V16.2586C20.9999 16.6013 20.9999 16.7726 20.9494 16.9254C20.9048 17.0606 20.8317 17.1847 20.7353 17.2893C20.6262 17.4077 20.4765 17.4909 20.1769 17.6573L18.7499 18.4501M9.74994 10.9501L11.9999 12.2001M11.9999 12.2001L14.2499 10.9501M11.9999 12.2001V14.7001M2.99994 7.20003L5.24994 8.45003M18.7499 8.45003L20.9999 7.20003M11.9999 19.7001V22.2001" stroke="white" stroke-width="1.4" stroke-linecap="round" stroke-linejoin="round"/>
</g>
</g>
<defs>
<clipPath id="clip0_160_11215">
<rect width="24" height="24" fill="white" transform="translate(-6.10352e-05 0.199951)"/>
</clipPath>
<clipPath id="clip1_160_11215">
<rect width="24" height="24" fill="white" transform="translate(-6.10352e-05 0.199951)"/>
</clipPath>
</defs>
</svg>
