<svg width="23" height="28" viewBox="0 0 23 28" fill="none" xmlns="http://www.w3.org/2000/svg">
<mask id="mask0_113_345" style="mask-type:luminance" maskUnits="userSpaceOnUse" x="0" y="0" width="23" height="28">
<path fill-rule="evenodd" clip-rule="evenodd" d="M0.000244141 0.682373H22.7365V27.1537H0.000244141V0.682373Z" fill="white"/>
</mask>
<g mask="url(#mask0_113_345)">
<path fill-rule="evenodd" clip-rule="evenodd" d="M6.09734 2.68237C3.888 2.68237 2.05334 4.4717 2.00134 6.67837V20.9704C1.95334 23.2384 3.74 25.105 5.98667 25.1544H16.764C18.9893 25.0744 20.7507 23.2384 20.736 20.977V9.1197L14.5573 2.68237H6.11334H6.09734ZM6.11342 27.1544H5.94542C2.59609 27.0824 -0.0705756 24.2984 0.00142437 20.949V6.65437C0.080091 3.34637 2.81076 0.682373 6.09342 0.682373H6.11742H14.9828C15.2548 0.682373 15.5148 0.79304 15.7041 0.98904L22.4588 8.02504C22.6361 8.21037 22.7361 8.45971 22.7361 8.71704V20.9704C22.7574 24.3157 20.1494 27.0344 16.7988 27.1544H6.11342Z" fill="#AAAAAA"/>
</g>
<path fill-rule="evenodd" clip-rule="evenodd" d="M21.7305 9.97924H18.0585C15.6172 9.97257 13.6345 7.98324 13.6345 5.5459V1.66724C13.6345 1.11524 14.0825 0.667236 14.6345 0.667236C15.1865 0.667236 15.6345 1.11524 15.6345 1.66724V5.5459C15.6345 6.88457 16.7225 7.97524 18.0612 7.97924H21.7305C22.2825 7.97924 22.7305 8.42724 22.7305 8.97924C22.7305 9.53124 22.2825 9.97924 21.7305 9.97924" fill="#AAAAAA"/>
<path fill-rule="evenodd" clip-rule="evenodd" d="M10.8555 20.2671C10.3035 20.2671 9.85547 19.8191 9.85547 19.2671V11.2124C9.85547 10.6604 10.3035 10.2124 10.8555 10.2124C11.4075 10.2124 11.8555 10.6604 11.8555 11.2124V19.2671C11.8555 19.8191 11.4075 20.2671 10.8555 20.2671" fill="#AAAAAA"/>
<path fill-rule="evenodd" clip-rule="evenodd" d="M7.72953 15.3531C7.47486 15.3531 7.21886 15.2557 7.0242 15.0611C6.63353 14.6717 6.63086 14.0397 7.02153 13.6477L10.1469 10.5064C10.5229 10.1291 11.1895 10.1291 11.5642 10.5064L14.6922 13.6477C15.0815 14.0397 15.0802 14.6717 14.6895 15.0611C14.2975 15.4504 13.6642 15.4504 13.2749 15.0584L10.8562 12.6291L8.43753 15.0584C8.24286 15.2557 7.98553 15.3531 7.72953 15.3531" fill="#AAAAAA"/>
</svg>
