<svg width="8" height="12" viewBox="0 0 8 12" fill="none" xmlns="http://www.w3.org/2000/svg">
<path d="M3.55508 11.4982C3.49712 11.4981 3.4396 11.488 3.38512 11.4682C3.28001 11.4297 3.19086 11.3571 3.13194 11.2619C3.07303 11.1668 3.04776 11.0546 3.06018 10.9434L3.44511 7.39961H0.50066C0.409842 7.39975 0.320703 7.37515 0.242816 7.32845C0.164928 7.28175 0.101235 7.21472 0.0585777 7.13456C0.0159201 7.0544 -0.00409063 6.96413 0.000694532 6.87345C0.0054797 6.78277 0.0348801 6.69511 0.085738 6.61988L4.02999 0.721926C4.09238 0.629627 4.18381 0.560809 4.28977 0.526398C4.39574 0.491987 4.51017 0.493956 4.61488 0.531991C4.71556 0.56936 4.80152 0.638147 4.86004 0.728168C4.91856 0.81819 4.94654 0.924661 4.93982 1.03182L4.5549 4.60058H7.49934C7.59016 4.60045 7.6793 4.62505 7.75718 4.67175C7.83507 4.71844 7.89877 4.78547 7.94142 4.86564C7.98408 4.9458 8.00409 5.03607 7.99931 5.12675C7.99452 5.21742 7.96512 5.30508 7.91426 5.38031L3.97001 11.2783C3.92415 11.3461 3.86233 11.4016 3.78998 11.44C3.71763 11.4783 3.63697 11.4983 3.55508 11.4982Z" fill="#FFF45C"/>
</svg>
