<svg width="52" height="52" viewBox="0 0 52 52" fill="none" xmlns="http://www.w3.org/2000/svg">
<g filter="url(#filter0_di_144_8039)">
<circle cx="26" cy="23" r="20" fill="url(#paint0_linear_144_8039)" shape-rendering="crispEdges"/>
<circle cx="26" cy="23" r="19.6429" stroke="black" stroke-width="0.714286" shape-rendering="crispEdges"/>
</g>
<mask id="mask0_144_8039" style="mask-type:luminance" maskUnits="userSpaceOnUse" x="15" y="12" width="22" height="22">
<path d="M15 12H37V34H15V12Z" fill="white"/>
</mask>
<g mask="url(#mask0_144_8039)">
<path d="M26 12C19.9262 12 15 16.9253 15 23C15 27.8602 18.1515 31.9833 22.5231 33.4381C23.0722 33.5398 23.25 33.1988 23.25 32.9092V30.8613C20.1902 31.5268 19.5531 29.5633 19.5531 29.5633C19.0526 28.2919 18.3312 27.9537 18.3312 27.9537C17.3329 27.2708 18.4073 27.2854 18.4073 27.2854C19.5118 27.3624 20.093 28.4193 20.093 28.4193C21.0738 30.1005 22.6661 29.6147 23.294 29.3333C23.3921 28.6228 23.6772 28.137 23.9925 27.8629C21.5496 27.5833 18.9811 26.6401 18.9811 22.4262C18.9811 21.2244 19.411 20.2436 20.1141 19.4736C20.0004 19.1958 19.6237 18.0766 20.2213 16.5623C20.2213 16.5623 21.1453 16.2671 23.2472 17.6897C24.1445 17.4455 25.0701 17.321 26 17.3194C26.935 17.324 27.8764 17.4459 28.7555 17.6897C30.8556 16.2671 31.7778 16.5623 31.7778 16.5623C32.3763 18.0775 31.9996 19.1968 31.8859 19.4736C32.5917 20.2436 33.018 21.2253 33.018 22.4262C33.018 26.6511 30.4449 27.5815 27.9956 27.8538C28.3898 28.1947 28.75 28.8639 28.75 29.8906V32.9092C28.75 33.2016 28.926 33.5453 29.4843 33.4372C33.8522 31.9806 37 27.8583 37 23C37 16.9253 32.0748 12 26 12Z" fill="url(#paint1_linear_144_8039)"/>
</g>
<defs>
<filter id="filter0_di_144_8039" x="0.285714" y="0.142857" width="51.4286" height="51.4286" filterUnits="userSpaceOnUse" color-interpolation-filters="sRGB">
<feFlood flood-opacity="0" result="BackgroundImageFix"/>
<feColorMatrix in="SourceAlpha" type="matrix" values="0 0 0 0 0 0 0 0 0 0 0 0 0 0 0 0 0 0 127 0" result="hardAlpha"/>
<feOffset dy="2.85714"/>
<feGaussianBlur stdDeviation="2.85714"/>
<feComposite in2="hardAlpha" operator="out"/>
<feColorMatrix type="matrix" values="0 0 0 0 0 0 0 0 0 0 0 0 0 0 0 0 0 0 0.14 0"/>
<feBlend mode="normal" in2="BackgroundImageFix" result="effect1_dropShadow_144_8039"/>
<feBlend mode="normal" in="SourceGraphic" in2="effect1_dropShadow_144_8039" result="shape"/>
<feColorMatrix in="SourceAlpha" type="matrix" values="0 0 0 0 0 0 0 0 0 0 0 0 0 0 0 0 0 0 127 0" result="hardAlpha"/>
<feOffset dy="5.71429"/>
<feGaussianBlur stdDeviation="2.85714"/>
<feComposite in2="hardAlpha" operator="arithmetic" k2="-1" k3="1"/>
<feColorMatrix type="matrix" values="0 0 0 0 1 0 0 0 0 1 0 0 0 0 1 0 0 0 0.3 0"/>
<feBlend mode="normal" in2="shape" result="effect2_innerShadow_144_8039"/>
</filter>
<linearGradient id="paint0_linear_144_8039" x1="26" y1="12.4238" x2="26" y2="63" gradientUnits="userSpaceOnUse">
<stop/>
<stop offset="1" stop-opacity="0.4"/>
</linearGradient>
<linearGradient id="paint1_linear_144_8039" x1="15" y1="22.7288" x2="37" y2="22.7288" gradientUnits="userSpaceOnUse">
<stop stop-color="#3A6BD5"/>
<stop offset="1" stop-color="#82A9FF"/>
</linearGradient>
</defs>
</svg>
