<svg width="77" height="78" viewBox="0 0 77 78" fill="none" xmlns="http://www.w3.org/2000/svg">
  <g filter="url(#filter0_dd_14_15)">
    <g clip-path="url(#clip0_14_15)">
      <rect x="6.5" y="4" width="64" height="64" rx="12.8" fill="#1A2B4C" />
      <g opacity="0.5">
        <path opacity="0.32" d="M51.6036 25.0191C51.5825 24.9553 51.5417 24.8999 51.4872 24.8605C51.4327 24.8212 51.3672 24.8 51.3 24.8C51.2328 24.8 51.1673 24.8212 51.1128 24.8605C51.0583 24.8999 51.0176 24.9553 50.9964 25.0191L50.7778 25.6754C50.7621 25.7225 50.7357 25.7654 50.7005 25.8005C50.6654 25.8357 50.6225 25.8622 50.5753 25.8779L49.9191 26.0964C49.8553 26.1176 49.7998 26.1583 49.7605 26.2128C49.7212 26.2673 49.7 26.3328 49.7 26.4C49.7 26.4673 49.7212 26.5328 49.7605 26.5873C49.7998 26.6418 49.8553 26.6825 49.9191 26.7037L50.5753 26.9225C50.6225 26.9382 50.6653 26.9646 50.7005 26.9997C50.7356 27.0348 50.7621 27.0776 50.7778 27.1247L50.9964 27.781C51.0176 27.8447 51.0583 27.9002 51.1128 27.9396C51.1673 27.9789 51.2328 28 51.3 28C51.3672 28 51.4327 27.9789 51.4872 27.9396C51.5417 27.9002 51.5825 27.8447 51.6036 27.781L51.8222 27.1247C51.8379 27.0776 51.8644 27.0347 51.8995 26.9995C51.9347 26.9644 51.9775 26.9379 52.0247 26.9222L52.6809 26.7037C52.7447 26.6825 52.8002 26.6418 52.8395 26.5873C52.8788 26.5328 52.9 26.4673 52.9 26.4C52.9 26.3328 52.8788 26.2673 52.8395 26.2128C52.8002 26.1583 52.7447 26.1176 52.6809 26.0964L52.0247 25.8779C51.9775 25.8622 51.9347 25.8357 51.8995 25.8005C51.8644 25.7654 51.8379 25.7225 51.8222 25.6754L51.6036 25.0191Z" fill="white" />
        <g opacity="0.09" filter="url(#filter1_f_14_15)">
          <path d="M59.6036 5.81912C59.5825 5.75534 59.5417 5.69985 59.4872 5.66052C59.4327 5.6212 59.3672 5.60004 59.3 5.60004C59.2328 5.60004 59.1673 5.6212 59.1128 5.66052C59.0583 5.69985 59.0176 5.75534 58.9964 5.81912L58.7778 6.47534C58.7621 6.52251 58.7357 6.56538 58.7005 6.60054C58.6654 6.63569 58.6225 6.66217 58.5753 6.67787L57.9191 6.8964C57.8553 6.91759 57.7998 6.95832 57.7605 7.01283C57.7212 7.06733 57.7 7.13283 57.7 7.20004C57.7 7.26724 57.7212 7.33275 57.7605 7.38725C57.7998 7.44175 57.8553 7.48248 57.9191 7.50367L58.5753 7.72252C58.6225 7.73819 58.6653 7.76462 58.7005 7.79972C58.7356 7.83482 58.7621 7.87762 58.7778 7.92473L58.9964 8.58096C59.0176 8.64474 59.0583 8.70022 59.1128 8.73955C59.1673 8.77887 59.2328 8.80004 59.3 8.80004C59.3672 8.80004 59.4327 8.77887 59.4872 8.73955C59.5417 8.70022 59.5825 8.64474 59.6036 8.58096L59.8222 7.92473C59.8379 7.87756 59.8644 7.83469 59.8995 7.79954C59.9347 7.76438 59.9775 7.7379 60.0247 7.7222L60.6809 7.50367C60.7447 7.48248 60.8002 7.44175 60.8395 7.38725C60.8788 7.33275 60.9 7.26724 60.9 7.20004C60.9 7.13283 60.8788 7.06733 60.8395 7.01283C60.8002 6.95832 60.7447 6.91759 60.6809 6.8964L60.0247 6.67787C59.9775 6.66217 59.9347 6.63569 59.8995 6.60054C59.8644 6.56538 59.8379 6.52251 59.8222 6.47534L59.6036 5.81912Z" fill="white" />
        </g>
        <path opacity="0.11" d="M24.4036 29.8191C24.3824 29.7553 24.3417 29.6998 24.2872 29.6605C24.2327 29.6212 24.1672 29.6 24.1 29.6C24.0328 29.6 23.9673 29.6212 23.9128 29.6605C23.8583 29.6998 23.8175 29.7553 23.7963 29.8191L23.5778 30.4753C23.5621 30.5225 23.5356 30.5654 23.5005 30.6005C23.4653 30.6357 23.4224 30.6622 23.3753 30.6779L22.719 30.8964C22.6553 30.9176 22.5998 30.9583 22.5605 31.0128C22.5211 31.0673 22.5 31.1328 22.5 31.2C22.5 31.2672 22.5211 31.3327 22.5605 31.3872C22.5998 31.4417 22.6553 31.4825 22.719 31.5037L23.3753 31.7225C23.4224 31.7382 23.4653 31.7646 23.5004 31.7997C23.5356 31.8348 23.5621 31.8776 23.5778 31.9247L23.7963 32.581C23.8175 32.6447 23.8583 32.7002 23.9128 32.7395C23.9673 32.7789 24.0328 32.8 24.1 32.8C24.1672 32.8 24.2327 32.7789 24.2872 32.7395C24.3417 32.7002 24.3824 32.6447 24.4036 32.581L24.6221 31.9247C24.6378 31.8776 24.6643 31.8347 24.6995 31.7995C24.7346 31.7644 24.7775 31.7379 24.8247 31.7222L25.4809 31.5037C25.5447 31.4825 25.6002 31.4417 25.6395 31.3872C25.6788 31.3327 25.7 31.2672 25.7 31.2C25.7 31.1328 25.6788 31.0673 25.6395 31.0128C25.6002 30.9583 25.5447 30.9176 25.4809 30.8964L24.8247 30.6779C24.7775 30.6622 24.7346 30.6357 24.6995 30.6005C24.6643 30.5654 24.6378 30.5225 24.6221 30.4753L24.4036 29.8191Z" fill="white" />
        <path opacity="0.45" d="M6.80366 37.8191C6.78247 37.7553 6.74174 37.6998 6.68723 37.6605C6.63273 37.6212 6.56723 37.6 6.50002 37.6C6.43282 37.6 6.36732 37.6212 6.31281 37.6605C6.25831 37.6998 6.21758 37.7553 6.19639 37.8191L5.97786 38.4753C5.96216 38.5225 5.93568 38.5654 5.90052 38.6005C5.86537 38.6357 5.8225 38.6622 5.77533 38.6779L5.1191 38.8964C5.05532 38.9176 4.99984 38.9583 4.96051 39.0128C4.92119 39.0673 4.90002 39.1328 4.90002 39.2C4.90002 39.2672 4.92119 39.3327 4.96051 39.3872C4.99984 39.4417 5.05532 39.4825 5.1191 39.5037L5.77533 39.7225C5.82247 39.7382 5.86531 39.7646 5.90046 39.7997C5.93562 39.8348 5.96212 39.8776 5.97786 39.9247L6.19639 40.581C6.21758 40.6447 6.25831 40.7002 6.31281 40.7395C6.36732 40.7789 6.43282 40.8 6.50002 40.8C6.56723 40.8 6.63273 40.7789 6.68723 40.7395C6.74174 40.7002 6.78247 40.6447 6.80366 40.581L7.02219 39.9247C7.03789 39.8776 7.06437 39.8347 7.09953 39.7995C7.13468 39.7644 7.17755 39.7379 7.22472 39.7222L7.88094 39.5037C7.94472 39.4825 8.00021 39.4417 8.03954 39.3872C8.07886 39.3327 8.10002 39.2672 8.10002 39.2C8.10002 39.1328 8.07886 39.0673 8.03954 39.0128C8.00021 38.9583 7.94472 38.9176 7.88094 38.8964L7.22472 38.6779C7.17755 38.6622 7.13468 38.6357 7.09953 38.6005C7.06437 38.5654 7.03789 38.5225 7.02219 38.4753L6.80366 37.8191Z" fill="white" />
        <path opacity="0.2" d="M56.4037 20.2191C56.3825 20.1553 56.3417 20.0998 56.2872 20.0605C56.2327 20.0212 56.1672 20 56.1 20C56.0328 20 55.9673 20.0212 55.9128 20.0605C55.8583 20.0998 55.8176 20.1553 55.7964 20.2191L55.5779 20.8753C55.5622 20.9225 55.5357 20.9654 55.5005 21.0005C55.4654 21.0357 55.4225 21.0622 55.3753 21.0779L54.7191 21.2964C54.6553 21.3176 54.5998 21.3583 54.5605 21.4128C54.5212 21.4673 54.5 21.5328 54.5 21.6C54.5 21.6672 54.5212 21.7327 54.5605 21.7872C54.5998 21.8417 54.6553 21.8825 54.7191 21.9037L55.3753 22.1225C55.4225 22.1382 55.4653 22.1646 55.5005 22.1997C55.5356 22.2348 55.5621 22.2776 55.5779 22.3247L55.7964 22.981C55.8176 23.0447 55.8583 23.1002 55.9128 23.1395C55.9673 23.1789 56.0328 23.2 56.1 23.2C56.1672 23.2 56.2327 23.1789 56.2872 23.1395C56.3417 23.1002 56.3825 23.0447 56.4037 22.981L56.6222 22.3247C56.6379 22.2776 56.6644 22.2347 56.6995 22.1995C56.7347 22.1644 56.7776 22.1379 56.8247 22.1222L57.481 21.9037C57.5447 21.8825 57.6002 21.8417 57.6395 21.7872C57.6789 21.7327 57.7 21.6672 57.7 21.6C57.7 21.5328 57.6789 21.4673 57.6395 21.4128C57.6002 21.3583 57.5447 21.3176 57.481 21.2964L56.8247 21.0779C56.7776 21.0622 56.7347 21.0357 56.6995 21.0005C56.6644 20.9654 56.6379 20.9225 56.6222 20.8753L56.4037 20.2191Z" fill="white" />
        <path opacity="0.32" d="M35.6036 7.41912C35.5825 7.35534 35.5417 7.29985 35.4872 7.26053C35.4327 7.22121 35.3672 7.20004 35.3 7.20004C35.2328 7.20004 35.1673 7.22121 35.1128 7.26053C35.0583 7.29985 35.0176 7.35534 34.9964 7.41912L34.7778 8.07535C34.7621 8.12252 34.7357 8.16539 34.7005 8.20054C34.6654 8.2357 34.6225 8.26218 34.5753 8.27788L33.9191 8.49641C33.8553 8.5176 33.7998 8.55833 33.7605 8.61283C33.7212 8.66733 33.7 8.73284 33.7 8.80004C33.7 8.86725 33.7212 8.93275 33.7605 8.98725C33.7998 9.04175 33.8553 9.08249 33.9191 9.10368L34.5753 9.32253C34.6225 9.3382 34.6653 9.36463 34.7005 9.39972C34.7356 9.43482 34.7621 9.47762 34.7778 9.52474L34.9964 10.181C35.0176 10.2447 35.0583 10.3002 35.1128 10.3396C35.1673 10.3789 35.2328 10.4 35.3 10.4C35.3672 10.4 35.4327 10.3789 35.4872 10.3396C35.5417 10.3002 35.5825 10.2447 35.6036 10.181L35.8222 9.52474C35.8379 9.47756 35.8644 9.4347 35.8995 9.39954C35.9347 9.36439 35.9775 9.33791 36.0247 9.32221L36.6809 9.10368C36.7447 9.08249 36.8002 9.04175 36.8395 8.98725C36.8788 8.93275 36.9 8.86725 36.9 8.80004C36.9 8.73284 36.8788 8.66733 36.8395 8.61283C36.8002 8.55833 36.7447 8.5176 36.6809 8.49641L36.0247 8.27788C35.9775 8.26218 35.9347 8.2357 35.8995 8.20054C35.8644 8.16539 35.8379 8.12252 35.8222 8.07535L35.6036 7.41912Z" fill="white" />
        <g opacity="0.55" filter="url(#filter2_f_14_15)">
          <path d="M48.4036 21.8191C48.3824 21.7553 48.3417 21.6998 48.2872 21.6605C48.2327 21.6212 48.1672 21.6 48.1 21.6C48.0328 21.6 47.9673 21.6212 47.9128 21.6605C47.8583 21.6998 47.8176 21.7553 47.7964 21.8191L47.5778 22.4753C47.5621 22.5225 47.5357 22.5654 47.5005 22.6005C47.4653 22.6357 47.4225 22.6622 47.3753 22.6779L46.7191 22.8964C46.6553 22.9176 46.5998 22.9583 46.5605 23.0128C46.5212 23.0673 46.5 23.1328 46.5 23.2C46.5 23.2672 46.5212 23.3327 46.5605 23.3872C46.5998 23.4417 46.6553 23.4825 46.7191 23.5037L47.3753 23.7225C47.4224 23.7382 47.4653 23.7646 47.5004 23.7997C47.5356 23.8348 47.5621 23.8776 47.5778 23.9247L47.7964 24.581C47.8176 24.6447 47.8583 24.7002 47.9128 24.7395C47.9673 24.7789 48.0328 24.8 48.1 24.8C48.1672 24.8 48.2327 24.7789 48.2872 24.7395C48.3417 24.7002 48.3824 24.6447 48.4036 24.581L48.6222 23.9247C48.6379 23.8776 48.6643 23.8347 48.6995 23.7995C48.7347 23.7644 48.7775 23.7379 48.8247 23.7222L49.4809 23.5037C49.5447 23.4825 49.6002 23.4417 49.6395 23.3872C49.6788 23.3327 49.7 23.2672 49.7 23.2C49.7 23.1328 49.6788 23.0673 49.6395 23.0128C49.6002 22.9583 49.5447 22.9176 49.4809 22.8964L48.8247 22.6779C48.7775 22.6622 48.7347 22.6357 48.6995 22.6005C48.6643 22.5654 48.6379 22.5225 48.6222 22.4753L48.4036 21.8191Z" fill="white" />
        </g>
        <g opacity="0.31" filter="url(#filter3_f_14_15)">
          <path d="M29.2036 21.8191C29.1824 21.7553 29.1417 21.6998 29.0872 21.6605C29.0327 21.6212 28.9672 21.6 28.9 21.6C28.8328 21.6 28.7673 21.6212 28.7128 21.6605C28.6583 21.6998 28.6175 21.7553 28.5964 21.8191L28.3778 22.4753C28.3621 22.5225 28.3356 22.5654 28.3005 22.6005C28.2653 22.6357 28.2225 22.6622 28.1753 22.6779L27.5191 22.8964C27.4553 22.9176 27.3998 22.9583 27.3605 23.0128C27.3212 23.0673 27.3 23.1328 27.3 23.2C27.3 23.2672 27.3212 23.3327 27.3605 23.3872C27.3998 23.4417 27.4553 23.4825 27.5191 23.5037L28.1753 23.7225C28.2224 23.7382 28.2653 23.7646 28.3004 23.7997C28.3356 23.8348 28.3621 23.8776 28.3778 23.9247L28.5964 24.581C28.6175 24.6447 28.6583 24.7002 28.7128 24.7395C28.7673 24.7789 28.8328 24.8 28.9 24.8C28.9672 24.8 29.0327 24.7789 29.0872 24.7395C29.1417 24.7002 29.1824 24.6447 29.2036 24.581L29.4222 23.9247C29.4379 23.8776 29.4643 23.8347 29.4995 23.7995C29.5346 23.7644 29.5775 23.7379 29.6247 23.7222L30.2809 23.5037C30.3447 23.4825 30.4002 23.4417 30.4395 23.3872C30.4788 23.3327 30.5 23.2672 30.5 23.2C30.5 23.1328 30.4788 23.0673 30.4395 23.0128C30.4002 22.9583 30.3447 22.9176 30.2809 22.8964L29.6247 22.6779C29.5775 22.6622 29.5346 22.6357 29.4995 22.6005C29.4643 22.5654 29.4379 22.5225 29.4222 22.4753L29.2036 21.8191Z" fill="white" />
        </g>
        <g opacity="0.17" filter="url(#filter4_f_14_15)">
          <path d="M46.8036 7.41912C46.7824 7.35534 46.7417 7.29985 46.6872 7.26053C46.6327 7.22121 46.5672 7.20004 46.5 7.20004C46.4328 7.20004 46.3673 7.22121 46.3128 7.26053C46.2583 7.29985 46.2175 7.35534 46.1964 7.41912L45.9778 8.07535C45.9621 8.12252 45.9356 8.16539 45.9005 8.20054C45.8653 8.2357 45.8225 8.26218 45.7753 8.27788L45.1191 8.49641C45.0553 8.5176 44.9998 8.55833 44.9605 8.61283C44.9212 8.66733 44.9 8.73284 44.9 8.80004C44.9 8.86725 44.9212 8.93275 44.9605 8.98725C44.9998 9.04175 45.0553 9.08249 45.1191 9.10368L45.7753 9.32253C45.8224 9.3382 45.8653 9.36463 45.9004 9.39972C45.9356 9.43482 45.9621 9.47762 45.9778 9.52474L46.1964 10.181C46.2175 10.2447 46.2583 10.3002 46.3128 10.3396C46.3673 10.3789 46.4328 10.4 46.5 10.4C46.5672 10.4 46.6327 10.3789 46.6872 10.3396C46.7417 10.3002 46.7824 10.2447 46.8036 10.181L47.0222 9.52474C47.0379 9.47756 47.0643 9.4347 47.0995 9.39954C47.1347 9.36439 47.1775 9.33791 47.2247 9.32221L47.8809 9.10368C47.9447 9.08249 48.0002 9.04175 48.0395 8.98725C48.0788 8.93275 48.1 8.86725 48.1 8.80004C48.1 8.73284 48.0788 8.66733 48.0395 8.61283C48.0002 8.55833 47.9447 8.5176 47.8809 8.49641L47.2247 8.27788C47.1775 8.26218 47.1347 8.2357 47.0995 8.20054C47.0643 8.16539 47.0379 8.12252 47.0222 8.07535L46.8036 7.41912Z" fill="white" />
        </g>
        <path opacity="0.33" d="M16.4036 18.6191C16.3824 18.5553 16.3417 18.4998 16.2872 18.4605C16.2327 18.4212 16.1672 18.4 16.1 18.4C16.0328 18.4 15.9673 18.4212 15.9128 18.4605C15.8583 18.4998 15.8176 18.5553 15.7964 18.6191L15.5778 19.2753C15.5621 19.3225 15.5357 19.3654 15.5005 19.4005C15.4653 19.4357 15.4225 19.4622 15.3753 19.4779L14.7191 19.6964C14.6553 19.7176 14.5998 19.7583 14.5605 19.8128C14.5212 19.8673 14.5 19.9328 14.5 20C14.5 20.0672 14.5212 20.1327 14.5605 20.1872C14.5998 20.2417 14.6553 20.2825 14.7191 20.3037L15.3753 20.5225C15.4224 20.5382 15.4653 20.5646 15.5004 20.5997C15.5356 20.6348 15.5621 20.6776 15.5778 20.7247L15.7964 21.3809C15.8176 21.4447 15.8583 21.5002 15.9128 21.5395C15.9673 21.5789 16.0328 21.6 16.1 21.6C16.1672 21.6 16.2327 21.5789 16.2872 21.5395C16.3417 21.5002 16.3824 21.4447 16.4036 21.3809L16.6222 20.7247C16.6379 20.6775 16.6643 20.6347 16.6995 20.5995C16.7347 20.5644 16.7775 20.5379 16.8247 20.5222L17.4809 20.3037C17.5447 20.2825 17.6002 20.2417 17.6395 20.1872C17.6788 20.1327 17.7 20.0672 17.7 20C17.7 19.9328 17.6788 19.8673 17.6395 19.8128C17.6002 19.7583 17.5447 19.7176 17.4809 19.6964L16.8247 19.4779C16.7775 19.4622 16.7347 19.4357 16.6995 19.4005C16.6643 19.3654 16.6379 19.3225 16.6222 19.2753L16.4036 18.6191Z" fill="white" />
        <g opacity="0.47" filter="url(#filter5_f_14_15)">
          <path d="M3.60368 5.81912C3.58249 5.75534 3.54175 5.69985 3.48725 5.66052C3.43275 5.6212 3.36725 5.60004 3.30004 5.60004C3.23284 5.60004 3.16733 5.6212 3.11283 5.66052C3.05833 5.69985 3.0176 5.75534 2.99641 5.81912L2.77788 6.47534C2.76218 6.52251 2.7357 6.56538 2.70054 6.60054C2.66539 6.63569 2.62252 6.66217 2.57535 6.67787L1.91912 6.8964C1.85534 6.91759 1.79985 6.95832 1.76053 7.01283C1.72121 7.06733 1.70004 7.13283 1.70004 7.20004C1.70004 7.26724 1.72121 7.33275 1.76053 7.38725C1.79985 7.44175 1.85534 7.48248 1.91912 7.50367L2.57535 7.72252C2.62249 7.73819 2.66533 7.76462 2.70048 7.79972C2.73564 7.83482 2.76213 7.87762 2.77788 7.92473L2.99641 8.58096C3.0176 8.64474 3.05833 8.70022 3.11283 8.73955C3.16733 8.77887 3.23284 8.80004 3.30004 8.80004C3.36725 8.80004 3.43275 8.77887 3.48725 8.73955C3.54175 8.70022 3.58249 8.64474 3.60368 8.58096L3.82221 7.92473C3.83791 7.87756 3.86439 7.83469 3.89954 7.79954C3.9347 7.76438 3.97756 7.7379 4.02474 7.7222L4.68096 7.50367C4.74474 7.48248 4.80023 7.44175 4.83956 7.38725C4.87888 7.33275 4.90004 7.26724 4.90004 7.20004C4.90004 7.13283 4.87888 7.06733 4.83956 7.01283C4.80023 6.95832 4.74474 6.91759 4.68096 6.8964L4.02474 6.67787C3.97756 6.66217 3.9347 6.63569 3.89954 6.60054C3.86439 6.56538 3.83791 6.52251 3.82221 6.47534L3.60368 5.81912Z" fill="white" />
        </g>
        <g opacity="0.21" filter="url(#filter6_f_14_15)">
          <path d="M43.6036 26.6191C43.5824 26.5553 43.5417 26.4998 43.4872 26.4605C43.4327 26.4212 43.3672 26.4 43.3 26.4C43.2328 26.4 43.1673 26.4212 43.1128 26.4605C43.0583 26.4998 43.0175 26.5553 42.9963 26.6191L42.7778 27.2753C42.7621 27.3225 42.7356 27.3654 42.7005 27.4005C42.6653 27.4357 42.6225 27.4622 42.5753 27.4779L41.9191 27.6964C41.8553 27.7176 41.7998 27.7583 41.7605 27.8128C41.7211 27.8673 41.7 27.9328 41.7 28C41.7 28.0672 41.7211 28.1327 41.7605 28.1872C41.7998 28.2417 41.8553 28.2825 41.9191 28.3037L42.5753 28.5225C42.6224 28.5382 42.6653 28.5646 42.7004 28.5997C42.7356 28.6348 42.7621 28.6776 42.7778 28.7247L42.9963 29.3809C43.0175 29.4447 43.0583 29.5002 43.1128 29.5395C43.1673 29.5789 43.2328 29.6 43.3 29.6C43.3672 29.6 43.4327 29.5789 43.4872 29.5395C43.5417 29.5002 43.5824 29.4447 43.6036 29.3809L43.8221 28.7247C43.8378 28.6775 43.8643 28.6347 43.8995 28.5995C43.9346 28.5644 43.9775 28.5379 44.0247 28.5222L44.6809 28.3037C44.7447 28.2825 44.8002 28.2417 44.8395 28.1872C44.8788 28.1327 44.9 28.0672 44.9 28C44.9 27.9328 44.8788 27.8673 44.8395 27.8128C44.8002 27.7583 44.7447 27.7176 44.6809 27.6964L44.0247 27.4779C43.9775 27.4622 43.9346 27.4357 43.8995 27.4005C43.8643 27.3654 43.8378 27.3225 43.8221 27.2753L43.6036 26.6191Z" fill="white" />
        </g>
        <path opacity="0.17" d="M53.2037 31.4191C53.1825 31.3553 53.1417 31.2999 53.0872 31.2605C53.0327 31.2212 52.9672 31.2 52.9 31.2C52.8328 31.2 52.7673 31.2212 52.7128 31.2605C52.6583 31.2999 52.6176 31.3553 52.5964 31.4191L52.3779 32.0753C52.3622 32.1225 52.3357 32.1654 52.3005 32.2005C52.2654 32.2357 52.2225 32.2622 52.1753 32.2779L51.5191 32.4964C51.4553 32.5176 51.3998 32.5583 51.3605 32.6128C51.3212 32.6673 51.3 32.7328 51.3 32.8C51.3 32.8673 51.3212 32.9328 51.3605 32.9873C51.3998 33.0418 51.4553 33.0825 51.5191 33.1037L52.1753 33.3225C52.2225 33.3382 52.2653 33.3646 52.3005 33.3997C52.3356 33.4348 52.3621 33.4776 52.3779 33.5247L52.5964 34.181C52.6176 34.2447 52.6583 34.3002 52.7128 34.3396C52.7673 34.3789 52.8328 34.4 52.9 34.4C52.9672 34.4 53.0327 34.3789 53.0872 34.3396C53.1417 34.3002 53.1825 34.2447 53.2037 34.181L53.4222 33.5247C53.4379 33.4776 53.4644 33.4347 53.4995 33.3995C53.5347 33.3644 53.5775 33.3379 53.6247 33.3222L54.2809 33.1037C54.3447 33.0825 54.4002 33.0418 54.4395 32.9873C54.4789 32.9328 54.5 32.8673 54.5 32.8C54.5 32.7328 54.4789 32.6673 54.4395 32.6128C54.4002 32.5583 54.3447 32.5176 54.2809 32.4964L53.6247 32.2779C53.5775 32.2622 53.5347 32.2357 53.4995 32.2005C53.4644 32.1654 53.4379 32.1225 53.4222 32.0753L53.2037 31.4191Z" fill="white" />
        <g opacity="0.44" filter="url(#filter7_f_14_15)">
          <path d="M22.8036 17.0191C22.7824 16.9553 22.7417 16.8998 22.6872 16.8605C22.6327 16.8212 22.5672 16.8 22.5 16.8C22.4328 16.8 22.3673 16.8212 22.3128 16.8605C22.2583 16.8998 22.2175 16.9553 22.1964 17.0191L21.9778 17.6753C21.9621 17.7225 21.9356 17.7654 21.9005 17.8005C21.8653 17.8357 21.8225 17.8622 21.7753 17.8779L21.1191 18.0964C21.0553 18.1176 20.9998 18.1583 20.9605 18.2128C20.9212 18.2673 20.9 18.3328 20.9 18.4C20.9 18.4672 20.9212 18.5327 20.9605 18.5872C20.9998 18.6417 21.0553 18.6825 21.1191 18.7037L21.7753 18.9225C21.8224 18.9382 21.8653 18.9646 21.9004 18.9997C21.9356 19.0348 21.9621 19.0776 21.9778 19.1247L22.1964 19.7809C22.2175 19.8447 22.2583 19.9002 22.3128 19.9395C22.3673 19.9789 22.4328 20 22.5 20C22.5672 20 22.6327 19.9789 22.6872 19.9395C22.7417 19.9002 22.7824 19.8447 22.8036 19.7809L23.0222 19.1247C23.0379 19.0775 23.0643 19.0347 23.0995 18.9995C23.1347 18.9644 23.1775 18.9379 23.2247 18.9222L23.8809 18.7037C23.9447 18.6825 24.0002 18.6417 24.0395 18.5872C24.0788 18.5327 24.1 18.4672 24.1 18.4C24.1 18.3328 24.0788 18.2673 24.0395 18.2128C24.0002 18.1583 23.9447 18.1176 23.8809 18.0964L23.2247 17.8779C23.1775 17.8622 23.1347 17.8357 23.0995 17.8005C23.0643 17.7654 23.0379 17.7225 23.0222 17.6753L22.8036 17.0191Z" fill="white" />
        </g>
        <g opacity="0.41" filter="url(#filter8_f_14_15)">
          <path d="M29.2036 41.0191C29.1824 40.9553 29.1417 40.8999 29.0872 40.8605C29.0327 40.8212 28.9672 40.8 28.9 40.8C28.8328 40.8 28.7673 40.8212 28.7128 40.8605C28.6583 40.8999 28.6175 40.9553 28.5964 41.0191L28.3778 41.6754C28.3621 41.7225 28.3356 41.7654 28.3005 41.8005C28.2653 41.8357 28.2225 41.8622 28.1753 41.8779L27.5191 42.0964C27.4553 42.1176 27.3998 42.1583 27.3605 42.2128C27.3212 42.2673 27.3 42.3328 27.3 42.4C27.3 42.4673 27.3212 42.5328 27.3605 42.5873C27.3998 42.6418 27.4553 42.6825 27.5191 42.7037L28.1753 42.9225C28.2224 42.9382 28.2653 42.9646 28.3004 42.9997C28.3356 43.0348 28.3621 43.0776 28.3778 43.1247L28.5964 43.781C28.6175 43.8447 28.6583 43.9002 28.7128 43.9396C28.7673 43.9789 28.8328 44 28.9 44C28.9672 44 29.0327 43.9789 29.0872 43.9396C29.1417 43.9002 29.1824 43.8447 29.2036 43.781L29.4222 43.1247C29.4379 43.0776 29.4643 43.0347 29.4995 42.9995C29.5346 42.9644 29.5775 42.9379 29.6247 42.9222L30.2809 42.7037C30.3447 42.6825 30.4002 42.6418 30.4395 42.5873C30.4788 42.5328 30.5 42.4673 30.5 42.4C30.5 42.3328 30.4788 42.2673 30.4395 42.2128C30.4002 42.1583 30.3447 42.1176 30.2809 42.0964L29.6247 41.8779C29.5775 41.8622 29.5346 41.8357 29.4995 41.8005C29.4643 41.7654 29.4379 41.7225 29.4222 41.6754L29.2036 41.0191Z" fill="white" />
        </g>
        <path opacity="0.09" d="M35.6036 28.2191C35.5825 28.1553 35.5417 28.0998 35.4872 28.0605C35.4327 28.0212 35.3672 28 35.3 28C35.2328 28 35.1673 28.0212 35.1128 28.0605C35.0583 28.0998 35.0176 28.1553 34.9964 28.2191L34.7778 28.8753C34.7621 28.9225 34.7357 28.9654 34.7005 29.0005C34.6654 29.0357 34.6225 29.0622 34.5753 29.0779L33.9191 29.2964C33.8553 29.3176 33.7998 29.3583 33.7605 29.4128C33.7212 29.4673 33.7 29.5328 33.7 29.6C33.7 29.6672 33.7212 29.7327 33.7605 29.7872C33.7998 29.8417 33.8553 29.8825 33.9191 29.9037L34.5753 30.1225C34.6225 30.1382 34.6653 30.1646 34.7005 30.1997C34.7356 30.2348 34.7621 30.2776 34.7778 30.3247L34.9964 30.981C35.0176 31.0447 35.0583 31.1002 35.1128 31.1395C35.1673 31.1789 35.2328 31.2 35.3 31.2C35.3672 31.2 35.4327 31.1789 35.4872 31.1395C35.5417 31.1002 35.5825 31.0447 35.6036 30.981L35.8222 30.3247C35.8379 30.2776 35.8644 30.2347 35.8995 30.1995C35.9347 30.1644 35.9775 30.1379 36.0247 30.1222L36.6809 29.9037C36.7447 29.8825 36.8002 29.8417 36.8395 29.7872C36.8788 29.7327 36.9 29.6672 36.9 29.6C36.9 29.5328 36.8788 29.4673 36.8395 29.4128C36.8002 29.3583 36.7447 29.3176 36.6809 29.2964L36.0247 29.0779C35.9775 29.0622 35.9347 29.0357 35.8995 29.0005C35.8644 28.9654 35.8379 28.9225 35.8222 28.8753L35.6036 28.2191Z" fill="white" />
        <path opacity="0.15" d="M67.6036 26.6191C67.5825 26.5553 67.5417 26.4998 67.4872 26.4605C67.4327 26.4212 67.3672 26.4 67.3 26.4C67.2328 26.4 67.1673 26.4212 67.1128 26.4605C67.0583 26.4998 67.0176 26.5553 66.9964 26.6191L66.7778 27.2753C66.7621 27.3225 66.7357 27.3654 66.7005 27.4005C66.6654 27.4357 66.6225 27.4622 66.5753 27.4779L65.9191 27.6964C65.8553 27.7176 65.7998 27.7583 65.7605 27.8128C65.7212 27.8673 65.7 27.9328 65.7 28C65.7 28.0672 65.7212 28.1327 65.7605 28.1872C65.7998 28.2417 65.8553 28.2825 65.9191 28.3037L66.5753 28.5225C66.6225 28.5382 66.6653 28.5646 66.7005 28.5997C66.7356 28.6348 66.7621 28.6776 66.7778 28.7247L66.9964 29.3809C67.0176 29.4447 67.0583 29.5002 67.1128 29.5395C67.1673 29.5789 67.2328 29.6 67.3 29.6C67.3672 29.6 67.4327 29.5789 67.4872 29.5395C67.5417 29.5002 67.5825 29.4447 67.6036 29.3809L67.8222 28.7247C67.8379 28.6775 67.8644 28.6347 67.8995 28.5995C67.9347 28.5644 67.9775 28.5379 68.0247 28.5222L68.6809 28.3037C68.7447 28.2825 68.8002 28.2417 68.8395 28.1872C68.8788 28.1327 68.9 28.0672 68.9 28C68.9 27.9328 68.8788 27.8673 68.8395 27.8128C68.8002 27.7583 68.7447 27.7176 68.6809 27.6964L68.0247 27.4779C67.9775 27.4622 67.9347 27.4357 67.8995 27.4005C67.8644 27.3654 67.8379 27.3225 67.8222 27.2753L67.6036 26.6191Z" fill="white" />
      </g>
      <g filter="url(#filter9_f_14_15)">
        <path d="M12.9 21.6H64.1L52.9696 68H24.0305L12.9 21.6Z" fill="url(#paint0_linear_14_15)" fill-opacity="0.4" />
      </g>
      <g filter="url(#filter10_f_14_15)">
        <ellipse cx="38.5" cy="68.8" rx="24" ry="5.6" fill="#6686C3" />
      </g>
      <g filter="url(#filter11_f_14_15)">
        <ellipse cx="38.5" cy="68.8" rx="11.2" ry="2.4" fill="#BDD4FF" />
      </g>
      <g filter="url(#filter12_f_14_15)">
        <ellipse cx="38.5" cy="69.6" rx="11.2" ry="1.6" fill="#BDD4FF" />
      </g>
      <g filter="url(#filter13_d_14_15)">
        <path d="M23.9081 45.6864C26.1099 35.9436 30.8146 26.9434 37.5576 19.5744C37.6775 19.444 37.8232 19.3398 37.9854 19.2686C38.1476 19.1974 38.3229 19.1606 38.5 19.1606C38.6772 19.1606 38.8525 19.1974 39.0147 19.2686C39.1769 19.3398 39.3226 19.444 39.4424 19.5744C39.708 19.8624 39.9288 20.1056 40.1032 20.3024C46.4978 27.5374 50.965 36.2678 53.092 45.6864C49.6665 46.408 46.148 46.8816 42.5576 47.0848L39.2152 53.7696C39.1487 53.9023 39.0466 54.0139 38.9203 54.0919C38.794 54.1698 38.6485 54.2111 38.5 54.2111C38.3516 54.2111 38.2061 54.1698 38.0798 54.0919C37.9535 54.0139 37.8514 53.9023 37.7848 53.7696L34.4424 47.0848C30.9008 46.8846 27.3793 46.4172 23.9081 45.6864ZM38.5 40.8C39.7731 40.8 40.994 40.2943 41.8942 39.3941C42.7943 38.4939 43.3 37.273 43.3 36C43.3 34.727 42.7943 33.5061 41.8942 32.6059C40.994 31.7057 39.7731 31.2 38.5 31.2C37.227 31.2 36.0061 31.7057 35.1059 32.6059C34.2058 33.5061 33.7 34.727 33.7 36C33.7 37.273 34.2058 38.4939 35.1059 39.3941C36.0061 40.2943 37.227 40.8 38.5 40.8Z" fill="url(#paint1_radial_14_15)" shape-rendering="crispEdges" />
        <path d="M52.6108 45.3778C50.4637 36.1765 46.0638 27.6505 39.8039 20.5677C39.6319 20.3736 39.413 20.1325 39.1484 19.8456L39.1479 19.8451C39.0655 19.7554 38.9654 19.6838 38.8539 19.6348C38.7423 19.5859 38.6219 19.5606 38.5 19.5606C38.3782 19.5606 38.2578 19.5859 38.1462 19.6348C38.0348 19.6838 37.9348 19.7553 37.8524 19.8448C31.2482 27.0623 26.613 35.8554 24.3894 45.3777C27.7117 46.057 31.0791 46.4941 34.465 46.6854L34.6965 46.6985L34.8002 46.9059L38.1424 53.5904L52.6108 45.3778ZM52.6108 45.3778C49.3306 46.0488 45.9659 46.4913 42.535 46.6854L42.3036 46.6985L42.1999 46.9059L38.8576 53.5904C38.8244 53.6567 38.7733 53.7125 38.7102 53.7515C38.647 53.7905 38.5743 53.8111 38.5 53.8111C38.4258 53.8111 38.3531 53.7905 38.2899 53.7515C38.2269 53.7126 38.1759 53.6569 38.1426 53.5907L52.6108 45.3778ZM38.5 41.2C39.8792 41.2 41.2018 40.6521 42.177 39.677C43.1522 38.7018 43.7 37.3791 43.7 36C43.7 34.6209 43.1522 33.2982 42.177 32.323C41.2018 31.3478 39.8792 30.8 38.5 30.8C37.1209 30.8 35.7983 31.3478 34.8231 32.323C33.8479 33.2982 33.3 34.6209 33.3 36C33.3 37.3791 33.8479 38.7018 34.8231 39.677C35.7983 40.6521 37.1209 41.2 38.5 41.2Z" stroke="url(#paint2_linear_14_15)" stroke-width="0.8" shape-rendering="crispEdges" />
      </g>
    </g>
    <rect x="7.3" y="4.8" width="62.4" height="62.4" rx="12" stroke="url(#paint3_linear_14_15)" stroke-opacity="0.3" stroke-width="1.6" />
  </g>
  <defs>
    <filter id="filter0_dd_14_15" x="0.0999998" y="0.799999" width="76.8" height="76.8" filterUnits="userSpaceOnUse" color-interpolation-filters="sRGB">
      <feFlood flood-opacity="0" result="BackgroundImageFix" />
      <feColorMatrix in="SourceAlpha" type="matrix" values="0 0 0 0 0 0 0 0 0 0 0 0 0 0 0 0 0 0 127 0" result="hardAlpha" />
      <feMorphology radius="1.6" operator="dilate" in="SourceAlpha" result="effect1_dropShadow_14_15" />
      <feOffset />
      <feComposite in2="hardAlpha" operator="out" />
      <feColorMatrix type="matrix" values="0 0 0 0 0.809849 0 0 0 0 0.84117 0 0 0 0 0.901969 0 0 0 1 0" />
      <feBlend mode="normal" in2="BackgroundImageFix" result="effect1_dropShadow_14_15" />
      <feColorMatrix in="SourceAlpha" type="matrix" values="0 0 0 0 0 0 0 0 0 0 0 0 0 0 0 0 0 0 127 0" result="hardAlpha" />
      <feMorphology radius="1.6" operator="erode" in="SourceAlpha" result="effect2_dropShadow_14_15" />
      <feOffset dy="3.2" />
      <feGaussianBlur stdDeviation="4" />
      <feComposite in2="hardAlpha" operator="out" />
      <feColorMatrix type="matrix" values="0 0 0 0 0.161857 0 0 0 0 0.171682 0 0 0 0 0.197884 0 0 0 0.5 0" />
      <feBlend mode="normal" in2="effect1_dropShadow_14_15" result="effect2_dropShadow_14_15" />
      <feBlend mode="normal" in="SourceGraphic" in2="effect2_dropShadow_14_15" result="shape" />
    </filter>
    <filter id="filter1_f_14_15" x="56.1" y="4.00004" width="6.40001" height="6.4" filterUnits="userSpaceOnUse" color-interpolation-filters="sRGB">
      <feFlood flood-opacity="0" result="BackgroundImageFix" />
      <feBlend mode="normal" in="SourceGraphic" in2="BackgroundImageFix" result="shape" />
      <feGaussianBlur stdDeviation="0.8" result="effect1_foregroundBlur_14_15" />
    </filter>
    <filter id="filter2_f_14_15" x="44.9" y="20" width="6.40001" height="6.40001" filterUnits="userSpaceOnUse" color-interpolation-filters="sRGB">
      <feFlood flood-opacity="0" result="BackgroundImageFix" />
      <feBlend mode="normal" in="SourceGraphic" in2="BackgroundImageFix" result="shape" />
      <feGaussianBlur stdDeviation="0.8" result="effect1_foregroundBlur_14_15" />
    </filter>
    <filter id="filter3_f_14_15" x="25.7" y="20" width="6.40001" height="6.40001" filterUnits="userSpaceOnUse" color-interpolation-filters="sRGB">
      <feFlood flood-opacity="0" result="BackgroundImageFix" />
      <feBlend mode="normal" in="SourceGraphic" in2="BackgroundImageFix" result="shape" />
      <feGaussianBlur stdDeviation="0.8" result="effect1_foregroundBlur_14_15" />
    </filter>
    <filter id="filter4_f_14_15" x="43.3" y="5.60004" width="6.40001" height="6.4" filterUnits="userSpaceOnUse" color-interpolation-filters="sRGB">
      <feFlood flood-opacity="0" result="BackgroundImageFix" />
      <feBlend mode="normal" in="SourceGraphic" in2="BackgroundImageFix" result="shape" />
      <feGaussianBlur stdDeviation="0.8" result="effect1_foregroundBlur_14_15" />
    </filter>
    <filter id="filter5_f_14_15" x="0.100043" y="4.00004" width="6.40001" height="6.4" filterUnits="userSpaceOnUse" color-interpolation-filters="sRGB">
      <feFlood flood-opacity="0" result="BackgroundImageFix" />
      <feBlend mode="normal" in="SourceGraphic" in2="BackgroundImageFix" result="shape" />
      <feGaussianBlur stdDeviation="0.8" result="effect1_foregroundBlur_14_15" />
    </filter>
    <filter id="filter6_f_14_15" x="40.1" y="24.8" width="6.40001" height="6.40001" filterUnits="userSpaceOnUse" color-interpolation-filters="sRGB">
      <feFlood flood-opacity="0" result="BackgroundImageFix" />
      <feBlend mode="normal" in="SourceGraphic" in2="BackgroundImageFix" result="shape" />
      <feGaussianBlur stdDeviation="0.8" result="effect1_foregroundBlur_14_15" />
    </filter>
    <filter id="filter7_f_14_15" x="19.3" y="15.2" width="6.40001" height="6.40001" filterUnits="userSpaceOnUse" color-interpolation-filters="sRGB">
      <feFlood flood-opacity="0" result="BackgroundImageFix" />
      <feBlend mode="normal" in="SourceGraphic" in2="BackgroundImageFix" result="shape" />
      <feGaussianBlur stdDeviation="0.8" result="effect1_foregroundBlur_14_15" />
    </filter>
    <filter id="filter8_f_14_15" x="25.7" y="39.2" width="6.40001" height="6.40001" filterUnits="userSpaceOnUse" color-interpolation-filters="sRGB">
      <feFlood flood-opacity="0" result="BackgroundImageFix" />
      <feBlend mode="normal" in="SourceGraphic" in2="BackgroundImageFix" result="shape" />
      <feGaussianBlur stdDeviation="0.8" result="effect1_foregroundBlur_14_15" />
    </filter>
    <filter id="filter9_f_14_15" x="9.70002" y="18.4" width="57.6" height="52.8" filterUnits="userSpaceOnUse" color-interpolation-filters="sRGB">
      <feFlood flood-opacity="0" result="BackgroundImageFix" />
      <feBlend mode="normal" in="SourceGraphic" in2="BackgroundImageFix" result="shape" />
      <feGaussianBlur stdDeviation="1.6" result="effect1_foregroundBlur_14_15" />
    </filter>
    <filter id="filter10_f_14_15" x="6.5" y="55.2" width="64" height="27.2" filterUnits="userSpaceOnUse" color-interpolation-filters="sRGB">
      <feFlood flood-opacity="0" result="BackgroundImageFix" />
      <feBlend mode="normal" in="SourceGraphic" in2="BackgroundImageFix" result="shape" />
      <feGaussianBlur stdDeviation="4" result="effect1_foregroundBlur_14_15" />
    </filter>
    <filter id="filter11_f_14_15" x="22.5" y="61.6" width="32" height="14.4" filterUnits="userSpaceOnUse" color-interpolation-filters="sRGB">
      <feFlood flood-opacity="0" result="BackgroundImageFix" />
      <feBlend mode="normal" in="SourceGraphic" in2="BackgroundImageFix" result="shape" />
      <feGaussianBlur stdDeviation="2.4" result="effect1_foregroundBlur_14_15" />
    </filter>
    <filter id="filter12_f_14_15" x="22.5" y="63.2" width="32" height="12.8" filterUnits="userSpaceOnUse" color-interpolation-filters="sRGB">
      <feFlood flood-opacity="0" result="BackgroundImageFix" />
      <feBlend mode="normal" in="SourceGraphic" in2="BackgroundImageFix" result="shape" />
      <feGaussianBlur stdDeviation="2.4" result="effect1_foregroundBlur_14_15" />
    </filter>
    <filter id="filter13_d_14_15" x="12.7081" y="12.7606" width="51.584" height="57.4505" filterUnits="userSpaceOnUse" color-interpolation-filters="sRGB">
      <feFlood flood-opacity="0" result="BackgroundImageFix" />
      <feColorMatrix in="SourceAlpha" type="matrix" values="0 0 0 0 0 0 0 0 0 0 0 0 0 0 0 0 0 0 127 0" result="hardAlpha" />
      <feOffset dy="4.8" />
      <feGaussianBlur stdDeviation="5.6" />
      <feComposite in2="hardAlpha" operator="out" />
      <feColorMatrix type="matrix" values="0 0 0 0 0 0 0 0 0 0 0 0 0 0 0 0 0 0 0.18 0" />
      <feBlend mode="normal" in2="BackgroundImageFix" result="effect1_dropShadow_14_15" />
      <feBlend mode="normal" in="SourceGraphic" in2="effect1_dropShadow_14_15" result="shape" />
    </filter>
    <linearGradient id="paint0_linear_14_15" x1="38.5" y1="21.6" x2="37.725" y2="60.001" gradientUnits="userSpaceOnUse">
      <stop stop-color="#597AB9" stop-opacity="0" />
      <stop offset="1" stop-color="#496395" />
    </linearGradient>
    <radialGradient id="paint1_radial_14_15" cx="0" cy="0" r="1" gradientUnits="userSpaceOnUse" gradientTransform="translate(38.5001 17.4915) rotate(90) scale(60.9212 50.7246)">
      <stop stop-color="white" />
      <stop offset="1" stop-color="white" stop-opacity="0" />
    </radialGradient>
    <linearGradient id="paint2_linear_14_15" x1="38.5" y1="19.1606" x2="38.5" y2="54.2111" gradientUnits="userSpaceOnUse">
      <stop offset="0.735221" stop-color="white" stop-opacity="0" />
      <stop offset="1" stop-color="white" stop-opacity="0.8" />
    </linearGradient>
    <linearGradient id="paint3_linear_14_15" x1="38.5" y1="4" x2="38.5" y2="68" gradientUnits="userSpaceOnUse">
      <stop stop-color="white" />
      <stop offset="0.510417" stop-color="white" stop-opacity="0" />
    </linearGradient>
    <clipPath id="clip0_14_15">
      <rect x="6.5" y="4" width="64" height="64" rx="12.8" fill="white" />
    </clipPath>
  </defs>
</svg>