<svg width="50" height="50" viewBox="0 0 50 50" fill="none" xmlns="http://www.w3.org/2000/svg">
<rect x="0.5" y="0.5" width="49" height="49" rx="24.5" stroke="white" stroke-opacity="0.1"/>
<g clip-path="url(#clip0_187_390)">
<g clip-path="url(#clip1_187_390)">
<g clip-path="url(#clip2_187_390)">
<path d="M35.3407 4.34424C39.0207 6.28662 42.1008 9.19633 44.2494 12.7599C46.398 16.3234 47.5334 20.4057 47.5334 24.5667" stroke="white" stroke-width="0.933333" stroke-linecap="round"/>
</g>
</g>
</g>
<path d="M21.37 32.216C20.302 32.216 19.366 31.928 18.562 31.352C17.758 30.776 17.128 29.966 16.672 28.922C16.228 27.878 16.006 26.666 16.006 25.286C16.006 23.894 16.228 22.682 16.672 21.65C17.116 20.618 17.74 19.814 18.544 19.238C19.348 18.662 20.284 18.374 21.352 18.374C22.444 18.374 23.386 18.662 24.178 19.238C24.982 19.814 25.612 20.624 26.068 21.668C26.524 22.7 26.752 23.906 26.752 25.286C26.752 26.666 26.524 27.878 26.068 28.922C25.624 29.954 25 30.764 24.196 31.352C23.392 31.928 22.45 32.216 21.37 32.216ZM21.388 29.984C22 29.984 22.522 29.798 22.954 29.426C23.386 29.042 23.716 28.502 23.944 27.806C24.184 27.098 24.304 26.258 24.304 25.286C24.304 24.314 24.184 23.48 23.944 22.784C23.716 22.076 23.38 21.536 22.936 21.164C22.504 20.792 21.976 20.606 21.352 20.606C20.752 20.606 20.236 20.792 19.804 21.164C19.372 21.536 19.036 22.076 18.796 22.784C18.568 23.48 18.454 24.314 18.454 25.286C18.454 26.246 18.568 27.08 18.796 27.788C19.036 28.484 19.372 29.024 19.804 29.408C20.248 29.792 20.776 29.984 21.388 29.984ZM30.8562 32V20.678H28.2642V18.59H33.3042V32H30.8562Z" fill="white"/>
<defs>
<clipPath id="clip0_187_390">
<rect width="14" height="23" fill="white" transform="translate(34 2.80005)"/>
</clipPath>
<clipPath id="clip1_187_390">
<rect width="14" height="23" fill="white" transform="translate(34 2.80005)"/>
</clipPath>
<clipPath id="clip2_187_390">
<rect width="14" height="22.4" fill="white" transform="translate(34 3.1001)"/>
</clipPath>
</defs>
</svg>
