<svg width="50" height="50" viewBox="0 0 50 50" fill="none" xmlns="http://www.w3.org/2000/svg">
<rect x="0.5" y="0.5" width="49" height="49" rx="24.5" stroke="white" stroke-opacity="0.1"/>
<g clip-path="url(#clip0_187_391)">
<g clip-path="url(#clip1_187_391)">
<g clip-path="url(#clip2_187_391)">
<path d="M35.3407 4.34424C39.0207 6.28662 42.1008 9.19633 44.2494 12.7599C46.398 16.3234 47.5334 20.4057 47.5334 24.5667" stroke="white" stroke-width="0.933333" stroke-linecap="round"/>
</g>
</g>
</g>
<path d="M19.6298 32.216C18.5618 32.216 17.6258 31.928 16.8218 31.352C16.0178 30.776 15.3878 29.966 14.9318 28.922C14.4878 27.878 14.2658 26.666 14.2658 25.286C14.2658 23.894 14.4878 22.682 14.9318 21.65C15.3758 20.618 15.9998 19.814 16.8038 19.238C17.6078 18.662 18.5438 18.374 19.6118 18.374C20.7038 18.374 21.6458 18.662 22.4378 19.238C23.2418 19.814 23.8718 20.624 24.3278 21.668C24.7838 22.7 25.0118 23.906 25.0118 25.286C25.0118 26.666 24.7838 27.878 24.3278 28.922C23.8838 29.954 23.2598 30.764 22.4558 31.352C21.6518 31.928 20.7098 32.216 19.6298 32.216ZM19.6478 29.984C20.2598 29.984 20.7818 29.798 21.2138 29.426C21.6458 29.042 21.9758 28.502 22.2038 27.806C22.4438 27.098 22.5638 26.258 22.5638 25.286C22.5638 24.314 22.4438 23.48 22.2038 22.784C21.9758 22.076 21.6398 21.536 21.1958 21.164C20.7638 20.792 20.2358 20.606 19.6118 20.606C19.0118 20.606 18.4958 20.792 18.0638 21.164C17.6318 21.536 17.2958 22.076 17.0558 22.784C16.8278 23.48 16.7138 24.314 16.7138 25.286C16.7138 26.246 16.8278 27.08 17.0558 27.788C17.2958 28.484 17.6318 29.024 18.0638 29.408C18.5078 29.792 19.0358 29.984 19.6478 29.984ZM26.83 32V30.146L30.466 26.348C31.186 25.592 31.738 24.992 32.122 24.548C32.518 24.092 32.794 23.702 32.95 23.378C33.106 23.054 33.184 22.724 33.184 22.388C33.184 21.824 33.004 21.38 32.644 21.056C32.296 20.732 31.846 20.57 31.294 20.57C30.718 20.57 30.22 20.738 29.8 21.074C29.38 21.398 29.074 21.878 28.882 22.514L26.74 21.848C26.884 21.14 27.178 20.528 27.622 20.012C28.066 19.484 28.606 19.082 29.242 18.806C29.89 18.518 30.574 18.374 31.294 18.374C32.158 18.374 32.914 18.53 33.562 18.842C34.222 19.154 34.732 19.592 35.092 20.156C35.464 20.72 35.65 21.38 35.65 22.136C35.65 22.616 35.56 23.09 35.38 23.558C35.2 24.026 34.93 24.506 34.57 24.998C34.21 25.478 33.742 26.018 33.166 26.618L30.016 29.93H35.83V32H26.83Z" fill="white"/>
<defs>
<clipPath id="clip0_187_391">
<rect width="14" height="23" fill="white" transform="translate(34.0001 2.80005)"/>
</clipPath>
<clipPath id="clip1_187_391">
<rect width="14" height="23" fill="white" transform="translate(34.0001 2.80005)"/>
</clipPath>
<clipPath id="clip2_187_391">
<rect width="14" height="22.4" fill="white" transform="translate(34.0001 3.1001)"/>
</clipPath>
</defs>
</svg>
