<svg width="50" height="50" viewBox="0 0 50 50" fill="none" xmlns="http://www.w3.org/2000/svg">
<rect x="0.5" y="0.5" width="49" height="49" rx="24.5" stroke="white" stroke-opacity="0.1"/>
<g clip-path="url(#clip0_187_392)">
<g clip-path="url(#clip1_187_392)">
<g clip-path="url(#clip2_187_392)">
<path d="M35.3407 4.34424C39.0207 6.28662 42.1008 9.19633 44.2494 12.7599C46.398 16.3234 47.5334 20.4057 47.5334 24.5667" stroke="white" stroke-width="0.933333" stroke-linecap="round"/>
</g>
</g>
</g>
<path d="M19.498 32.216C18.43 32.216 17.494 31.928 16.69 31.352C15.886 30.776 15.256 29.966 14.8 28.922C14.356 27.878 14.134 26.666 14.134 25.286C14.134 23.894 14.356 22.682 14.8 21.65C15.244 20.618 15.868 19.814 16.672 19.238C17.476 18.662 18.412 18.374 19.48 18.374C20.572 18.374 21.514 18.662 22.306 19.238C23.11 19.814 23.74 20.624 24.196 21.668C24.652 22.7 24.88 23.906 24.88 25.286C24.88 26.666 24.652 27.878 24.196 28.922C23.752 29.954 23.128 30.764 22.324 31.352C21.52 31.928 20.578 32.216 19.498 32.216ZM19.516 29.984C20.128 29.984 20.65 29.798 21.082 29.426C21.514 29.042 21.844 28.502 22.072 27.806C22.312 27.098 22.432 26.258 22.432 25.286C22.432 24.314 22.312 23.48 22.072 22.784C21.844 22.076 21.508 21.536 21.064 21.164C20.632 20.792 20.104 20.606 19.48 20.606C18.88 20.606 18.364 20.792 17.932 21.164C17.5 21.536 17.164 22.076 16.924 22.784C16.696 23.48 16.582 24.314 16.582 25.286C16.582 26.246 16.696 27.08 16.924 27.788C17.164 28.484 17.5 29.024 17.932 29.408C18.376 29.792 18.904 29.984 19.516 29.984ZM31.1441 32.216C30.4121 32.216 29.7161 32.084 29.0561 31.82C28.4081 31.544 27.8501 31.16 27.3821 30.668C26.9261 30.164 26.6141 29.57 26.4461 28.886L28.5881 28.13C28.8041 28.742 29.1341 29.21 29.5781 29.534C30.0221 29.846 30.5441 30.002 31.1441 30.002C31.6241 30.002 32.0381 29.912 32.3861 29.732C32.7461 29.552 33.0281 29.294 33.2321 28.958C33.4361 28.61 33.5381 28.202 33.5381 27.734C33.5381 27.266 33.4361 26.87 33.2321 26.546C33.0401 26.21 32.7641 25.952 32.4041 25.772C32.0441 25.592 31.6181 25.502 31.1261 25.502C30.8981 25.502 30.6581 25.526 30.4061 25.574C30.1661 25.622 29.9501 25.694 29.7581 25.79L29.2001 24.62L32.6741 20.66H27.2021V18.59H35.4281V20.516L31.9361 24.602L31.9721 23.684C32.7761 23.696 33.4781 23.87 34.0781 24.206C34.6781 24.542 35.1461 25.004 35.4821 25.592C35.8181 26.18 35.9861 26.87 35.9861 27.662C35.9861 28.526 35.7761 29.306 35.3561 30.002C34.9361 30.686 34.3601 31.226 33.6281 31.622C32.8961 32.018 32.0681 32.216 31.1441 32.216Z" fill="white"/>
<defs>
<clipPath id="clip0_187_392">
<rect width="14" height="23" fill="white" transform="translate(34 2.80005)"/>
</clipPath>
<clipPath id="clip1_187_392">
<rect width="14" height="23" fill="white" transform="translate(34 2.80005)"/>
</clipPath>
<clipPath id="clip2_187_392">
<rect width="14" height="22.4" fill="white" transform="translate(34 3.1001)"/>
</clipPath>
</defs>
</svg>
