<svg width="50" height="50" viewBox="0 0 50 50" fill="none" xmlns="http://www.w3.org/2000/svg">
<rect x="0.5" y="0.5" width="49" height="49" rx="24.5" stroke="white" stroke-opacity="0.1"/>
<g clip-path="url(#clip0_187_393)">
<g clip-path="url(#clip1_187_393)">
<g clip-path="url(#clip2_187_393)">
<path d="M35.3407 4.34417C39.0207 6.28655 42.1008 9.19626 44.2494 12.7598C46.398 16.3233 47.5334 20.4056 47.5334 24.5667" stroke="white" stroke-width="0.933333" stroke-linecap="round"/>
</g>
</g>
</g>
<path d="M19.1113 32.216C18.0433 32.216 17.1073 31.928 16.3033 31.352C15.4993 30.776 14.8693 29.966 14.4133 28.922C13.9693 27.878 13.7473 26.666 13.7473 25.286C13.7473 23.894 13.9693 22.682 14.4133 21.65C14.8573 20.618 15.4813 19.814 16.2853 19.238C17.0893 18.662 18.0253 18.374 19.0933 18.374C20.1853 18.374 21.1273 18.662 21.9193 19.238C22.7233 19.814 23.3533 20.624 23.8093 21.668C24.2653 22.7 24.4933 23.906 24.4933 25.286C24.4933 26.666 24.2653 27.878 23.8093 28.922C23.3653 29.954 22.7413 30.764 21.9373 31.352C21.1333 31.928 20.1913 32.216 19.1113 32.216ZM19.1293 29.984C19.7413 29.984 20.2633 29.798 20.6953 29.426C21.1273 29.042 21.4573 28.502 21.6853 27.806C21.9253 27.098 22.0453 26.258 22.0453 25.286C22.0453 24.314 21.9253 23.48 21.6853 22.784C21.4573 22.076 21.1213 21.536 20.6773 21.164C20.2453 20.792 19.7173 20.606 19.0933 20.606C18.4933 20.606 17.9773 20.792 17.5453 21.164C17.1133 21.536 16.7773 22.076 16.5373 22.784C16.3093 23.48 16.1953 24.314 16.1953 25.286C16.1953 26.246 16.3093 27.08 16.5373 27.788C16.7773 28.484 17.1133 29.024 17.5453 29.408C17.9893 29.792 18.5173 29.984 19.1293 29.984ZM32.2874 32V29.048H26.1314V26.996L32.1434 18.59H34.6994V26.996H36.6614V29.048H34.6994V32H32.2874ZM27.9314 27.878L27.4994 26.996H32.2874V20.516L32.9174 20.714L27.9314 27.878Z" fill="white"/>
<defs>
<clipPath id="clip0_187_393">
<rect width="14" height="23" fill="white" transform="translate(34 2.8)"/>
</clipPath>
<clipPath id="clip1_187_393">
<rect width="14" height="23" fill="white" transform="translate(34 2.8)"/>
</clipPath>
<clipPath id="clip2_187_393">
<rect width="14" height="22.4" fill="white" transform="translate(34 3.10001)"/>
</clipPath>
</defs>
</svg>
