<svg width="52" height="52" viewBox="0 0 52 52" fill="none" xmlns="http://www.w3.org/2000/svg">
<g filter="url(#filter0_di_144_8030)">
<circle cx="26" cy="23" r="20" fill="url(#paint0_linear_144_8030)" shape-rendering="crispEdges"/>
<circle cx="26" cy="23" r="19.6429" stroke="black" stroke-width="0.714286" shape-rendering="crispEdges"/>
</g>
<path fill-rule="evenodd" clip-rule="evenodd" d="M34.4572 17.9702C34.2785 17.9525 34.0983 17.9547 33.92 17.9766C32.4469 18.159 31.7512 19.4369 32.0134 21.536C32.2517 23.4519 33.2234 25.4841 35.1126 25.2769C35.2327 25.2641 35.3482 25.2449 35.4591 25.2201C34.4233 29.7888 30.3661 33.1969 25.5188 33.1969C19.8859 33.1969 15.3209 28.5953 15.3209 22.9202C15.3209 17.2433 19.8859 12.6416 25.5188 12.6416C29.3697 12.6416 32.7229 14.7939 34.4572 17.9702ZM23.1904 29.9849C27.5354 29.9849 31.7008 25.9791 31.7008 21.6341C31.7008 17.2891 29.3019 13.7654 24.9569 13.7654C20.3002 13.7654 15.9644 17.9308 15.9644 22.2767C15.9644 27.8968 19.4963 29.9849 23.1904 29.9849Z" fill="url(#paint1_linear_144_8030)"/>
<path d="M36.8094 21.1911C37.1522 22.8805 36.6994 24.2968 35.2932 24.5434C33.887 24.79 33.0675 23.1821 32.8017 21.6375C32.512 19.9454 32.9749 18.8793 34.0704 18.6703C35.1658 18.4604 36.439 19.3642 36.8094 21.1911ZM25.8442 17.276C25.1448 17.3741 24.4399 17.8902 23.7459 18.8078C23.4169 19.2432 23.1437 19.6979 22.942 20.06L22.9448 20.0618V20.059C22.9448 20.059 23.4031 20.4899 23.9091 20.9482C24.0979 20.6017 24.372 20.1269 24.7029 19.686C25.3199 18.8701 25.7663 18.6538 26.0321 18.6162C27.0395 18.475 27.9846 19.2689 28.1404 20.3854C28.2963 21.4945 27.6042 22.5185 26.6004 22.6679C26.5404 22.6746 26.4799 22.6746 26.4199 22.6679C26.7334 22.7696 27.0624 22.8292 27.3622 22.787C29.2056 22.5285 29.3743 21.1095 29.3844 21.0069C29.4036 20.7417 29.3944 20.4753 29.3569 20.2121C29.0984 18.3614 27.5217 17.0414 25.8451 17.276H25.8442Z" fill="url(#paint2_linear_144_8030)"/>
<path d="M22.4278 23.3664C21.7357 24.2813 21.0363 24.7891 20.3478 24.8863C18.6905 25.1182 17.1267 23.8138 16.8682 21.9694C16.831 21.7084 16.8218 21.4441 16.8407 21.1811L16.8123 21.1793L16.8407 21.1829V21.1811C16.848 21.1261 16.8938 20.7558 17.1606 20.3662C17.4292 19.9729 17.9242 19.5586 18.8381 19.4303C19.0737 19.3973 19.3294 19.4284 19.5815 19.4944C18.5649 19.6503 17.8701 20.6879 18.0268 21.8072C18.1854 22.9365 19.1424 23.745 20.1682 23.6039C20.4468 23.5654 20.8988 23.3417 21.5175 22.5222C21.8383 22.0941 22.1078 21.633 22.2958 21.2884C22.583 21.55 22.8687 21.8134 23.1528 22.0785L23.2115 22.1335L23.217 22.139C23.0172 22.4965 22.7495 22.9411 22.4278 23.3664Z" fill="url(#paint3_linear_144_8030)"/>
<path d="M16.8407 21.1811C16.8218 21.4441 16.831 21.7084 16.8682 21.9694C17.1267 23.8138 18.6905 25.1182 20.3478 24.8863C21.0363 24.7891 21.7357 24.2813 22.4278 23.3664C22.7495 22.9411 23.0172 22.4965 23.217 22.139L23.2115 22.1335L23.1528 22.0785C22.8687 21.8134 22.583 21.55 22.2958 21.2884C22.1078 21.633 21.8383 22.0941 21.5175 22.5222C20.8988 23.3417 20.4468 23.5654 20.1682 23.6039C19.1424 23.745 18.1854 22.9365 18.0268 21.8072C17.8701 20.6879 18.5649 19.6503 19.5815 19.4944C19.3294 19.4284 19.0737 19.3973 18.8381 19.4303C17.9242 19.5586 17.4292 19.9729 17.1606 20.3662C16.8938 20.7558 16.848 21.1261 16.8407 21.1811ZM16.8407 21.1811L16.8123 21.1793L16.8407 21.1829V21.1811Z" stroke="url(#paint4_linear_144_8030)" stroke-width="0.0586667"/>
<path d="M27.3539 22.7588C26.407 22.8633 25.3079 22.1538 25.0788 21.9723C24.4848 21.5002 23.085 20.194 22.975 20.0904C21.9447 19.0967 20.5853 18.0141 19.4073 18.18H19.4028C17.9737 18.3881 16.9278 19.6614 16.8123 21.1794C16.8223 21.0795 17.0983 19.6174 18.8353 19.424C19.7823 19.3185 20.8868 20.04 21.1188 20.2215C21.7128 20.6945 23.1125 21.9998 23.2225 22.1034C24.2519 23.0952 25.6113 24.1769 26.7893 24.0119H26.7938C28.2229 23.8029 29.2716 22.5296 29.3853 21.0116C29.3724 21.1125 29.0919 22.5626 27.3539 22.7588Z" fill="url(#paint5_linear_144_8030)"/>
<defs>
<filter id="filter0_di_144_8030" x="0.285714" y="0.142857" width="51.4286" height="51.4286" filterUnits="userSpaceOnUse" color-interpolation-filters="sRGB">
<feFlood flood-opacity="0" result="BackgroundImageFix"/>
<feColorMatrix in="SourceAlpha" type="matrix" values="0 0 0 0 0 0 0 0 0 0 0 0 0 0 0 0 0 0 127 0" result="hardAlpha"/>
<feOffset dy="2.85714"/>
<feGaussianBlur stdDeviation="2.85714"/>
<feComposite in2="hardAlpha" operator="out"/>
<feColorMatrix type="matrix" values="0 0 0 0 0 0 0 0 0 0 0 0 0 0 0 0 0 0 0.14 0"/>
<feBlend mode="normal" in2="BackgroundImageFix" result="effect1_dropShadow_144_8030"/>
<feBlend mode="normal" in="SourceGraphic" in2="effect1_dropShadow_144_8030" result="shape"/>
<feColorMatrix in="SourceAlpha" type="matrix" values="0 0 0 0 0 0 0 0 0 0 0 0 0 0 0 0 0 0 127 0" result="hardAlpha"/>
<feOffset dy="5.71429"/>
<feGaussianBlur stdDeviation="2.85714"/>
<feComposite in2="hardAlpha" operator="arithmetic" k2="-1" k3="1"/>
<feColorMatrix type="matrix" values="0 0 0 0 1 0 0 0 0 1 0 0 0 0 1 0 0 0 0.3 0"/>
<feBlend mode="normal" in2="shape" result="effect2_innerShadow_144_8030"/>
</filter>
<linearGradient id="paint0_linear_144_8030" x1="26" y1="12.4238" x2="26" y2="63" gradientUnits="userSpaceOnUse">
<stop/>
<stop offset="1" stop-opacity="0.4"/>
</linearGradient>
<linearGradient id="paint1_linear_144_8030" x1="15.3209" y1="22.9193" x2="35.4591" y2="22.9193" gradientUnits="userSpaceOnUse">
<stop stop-color="#3A6BD5"/>
<stop offset="1" stop-color="#82A9FF"/>
</linearGradient>
<linearGradient id="paint2_linear_144_8030" x1="22.942" y1="20.9088" x2="36.9186" y2="20.9088" gradientUnits="userSpaceOnUse">
<stop stop-color="#3A6BD5"/>
<stop offset="1" stop-color="#82A9FF"/>
</linearGradient>
<linearGradient id="paint3_linear_144_8030" x1="16.8123" y1="22.165" x2="23.217" y2="22.165" gradientUnits="userSpaceOnUse">
<stop stop-color="#3A6BD5"/>
<stop offset="1" stop-color="#82A9FF"/>
</linearGradient>
<linearGradient id="paint4_linear_144_8030" x1="16.8123" y1="22.165" x2="23.217" y2="22.165" gradientUnits="userSpaceOnUse">
<stop stop-color="#3A6BD5"/>
<stop offset="1" stop-color="#82A9FF"/>
</linearGradient>
<linearGradient id="paint5_linear_144_8030" x1="16.8123" y1="21.0959" x2="29.3853" y2="21.0959" gradientUnits="userSpaceOnUse">
<stop stop-color="#3A6BD5"/>
<stop offset="1" stop-color="#82A9FF"/>
</linearGradient>
</defs>
</svg>
