<svg width="273" height="126" viewBox="0 0 273 126" fill="none" xmlns="http://www.w3.org/2000/svg">
<g clip-path="url(#clip0_160_11968)">
<g filter="url(#filter0_bd_160_11968)">
<rect width="273" height="123.928" rx="14.3684" fill="url(#paint0_linear_160_11968)" fill-opacity="0.15" shape-rendering="crispEdges"/>
<rect x="0.449013" y="0.449013" width="272.102" height="123.03" rx="13.9194" stroke="url(#paint1_linear_160_11968)" stroke-opacity="0.3" stroke-width="0.898026" shape-rendering="crispEdges"/>
</g>
<g filter="url(#filter1_dd_160_11968)">
<g clip-path="url(#clip1_160_11968)">
<rect x="14.3684" y="15.2664" width="25.1447" height="25.1447" rx="12.5724" fill="#70CCEA"/>
<rect width="42.1174" height="17.6013" transform="matrix(-3.65349e-08 -1 -1 5.22976e-08 44.5421 57.3838)" fill="url(#paint2_angular_160_11968)"/>
<rect x="9.33945" y="57.3838" width="42.1174" height="17.6013" transform="rotate(-90 9.33945 57.3838)" fill="url(#paint3_angular_160_11968)"/>
<g filter="url(#filter2_di_160_11968)">
<path d="M22.9402 23.8382L26.9408 19.8377L30.9413 23.8382C31.7325 24.6295 32.2713 25.6375 32.4896 26.735C32.7079 27.8325 32.5959 28.97 32.1677 30.0038C31.7395 31.0376 31.0143 31.9212 30.0839 32.5428C29.1536 33.1645 28.0597 33.4963 26.9408 33.4963C25.8218 33.4963 24.728 33.1645 23.7976 32.5428C22.8672 31.9212 22.1421 31.0376 21.7139 30.0038C21.2857 28.97 21.1736 27.8325 21.3919 26.735C21.6102 25.6375 22.149 24.6295 22.9402 23.8382ZM27.5694 26.5815V23.7527L24.7406 27.8388H26.3122V30.6675L29.1409 26.5815H27.5694Z" fill="url(#paint4_radial_160_11968)" shape-rendering="crispEdges"/>
<path d="M22.9402 23.8382L26.9408 19.8377L30.9413 23.8382C31.7325 24.6295 32.2713 25.6375 32.4896 26.735C32.7079 27.8325 32.5959 28.97 32.1677 30.0038C31.7395 31.0376 31.0143 31.9212 30.0839 32.5428C29.1536 33.1645 28.0597 33.4963 26.9408 33.4963C25.8218 33.4963 24.728 33.1645 23.7976 32.5428C22.8672 31.9212 22.1421 31.0376 21.7139 30.0038C21.2857 28.97 21.1736 27.8325 21.3919 26.735C21.6102 25.6375 22.149 24.6295 22.9402 23.8382ZM27.5694 26.5815V23.7527L24.7406 27.8388H26.3122V30.6675L29.1409 26.5815H27.5694Z" fill="white" fill-opacity="0.04" shape-rendering="crispEdges"/>
<path d="M24.7406 27.9959H26.155V30.6675V31.1706L26.4414 30.757L29.2701 26.671L29.4409 26.4244H29.1409H27.7265V23.7527V23.2496L27.4402 23.6633L24.6114 27.7493L24.4407 27.9959H24.7406ZM23.0514 23.9494L26.9408 20.06L30.8302 23.9494C31.5994 24.7186 32.1233 25.6987 32.3355 26.7657C32.5477 27.8326 32.4388 28.9386 32.0225 29.9436C31.6062 30.9487 30.9012 31.8078 29.9966 32.4121C29.0921 33.0165 28.0286 33.3391 26.9408 33.3391C25.8529 33.3391 24.7894 33.0165 23.8849 32.4121C22.9804 31.8078 22.2754 30.9487 21.8591 29.9436C21.4427 28.9386 21.3338 27.8326 21.546 26.7657C21.7583 25.6987 22.2821 24.7186 23.0514 23.9494Z" stroke="url(#paint5_linear_160_11968)" stroke-width="0.314309" shape-rendering="crispEdges"/>
</g>
</g>
<rect x="14.557" y="15.455" width="24.7676" height="24.7676" rx="12.3838" stroke="url(#paint6_linear_160_11968)" stroke-opacity="0.4" stroke-width="0.377171"/>
</g>
<path d="M51.5539 33.8388V23.1343H58.4507V24.212H52.7034V27.9334H58.1634V29.011H52.7034V32.7612H58.4507V33.8388H51.5539ZM60.1937 33.8388V22.9619H61.2713V33.8388H60.1937ZM66.983 34.0112C66.2646 34.0112 65.6132 33.8388 65.0289 33.494C64.4541 33.1395 63.9991 32.6558 63.6639 32.0428C63.3286 31.4297 63.161 30.7352 63.161 29.9593C63.161 29.1834 63.3238 28.4985 63.6495 27.9046C63.9752 27.3012 64.4158 26.827 64.9714 26.4822C65.5366 26.1373 66.1688 25.9649 66.868 25.9649C67.4236 25.9649 67.9169 26.0703 68.348 26.281C68.7886 26.4822 69.1622 26.76 69.4687 27.1144C69.7752 27.4592 70.0099 27.852 70.1728 28.2926C70.3356 28.7236 70.417 29.1691 70.417 29.6289C70.417 29.7246 70.4122 29.8348 70.4027 29.9593C70.3931 30.0743 70.3787 30.194 70.3596 30.3185H63.8507V29.3128H69.7417L69.2245 29.7438C69.3107 29.217 69.2484 28.7476 69.0377 28.3357C68.8365 27.9142 68.5444 27.5838 68.1612 27.3443C67.778 27.0952 67.347 26.9707 66.868 26.9707C66.3891 26.9707 65.9437 27.0952 65.5318 27.3443C65.1295 27.5933 64.8134 27.943 64.5835 28.3932C64.3536 28.8338 64.2626 29.3606 64.3105 29.9737C64.2626 30.5868 64.3584 31.1232 64.5978 31.583C64.8469 32.0332 65.1821 32.3828 65.6036 32.6319C66.0347 32.8809 66.4945 33.0054 66.983 33.0054C67.5481 33.0054 68.0223 32.8713 68.4055 32.6031C68.7886 32.3349 69.0999 31.9996 69.3394 31.5973L70.259 32.0859C70.1057 32.4307 69.871 32.7516 69.5549 33.0485C69.2388 33.3359 68.8605 33.5706 68.4198 33.7526C67.9888 33.925 67.5098 34.0112 66.983 34.0112ZM75.8373 34.0112C75.0806 34.0112 74.4148 33.834 73.8401 33.4796C73.2653 33.1252 72.8151 32.6462 72.4895 32.0428C72.1638 31.4297 72.0009 30.74 72.0009 29.9737C72.0009 29.2074 72.1638 28.5225 72.4895 27.919C72.8151 27.3155 73.2653 26.8414 73.8401 26.4965C74.4148 26.1421 75.0806 25.9649 75.8373 25.9649C76.3162 25.9649 76.7665 26.0511 77.1879 26.2235C77.6094 26.396 77.983 26.6306 78.3087 26.9276C78.6343 27.215 78.8786 27.5502 79.0415 27.9334L78.0644 28.4363C77.8728 28.0244 77.5807 27.6891 77.1879 27.4305C76.7952 27.1719 76.345 27.0425 75.8373 27.0425C75.3296 27.0425 74.8698 27.1719 74.4579 27.4305C74.0556 27.6795 73.7347 28.0292 73.4952 28.4794C73.2653 28.92 73.1504 29.4229 73.1504 29.9881C73.1504 30.5436 73.2653 31.0465 73.4952 31.4968C73.7347 31.9374 74.0556 32.287 74.4579 32.5456C74.8698 32.8043 75.3296 32.9336 75.8373 32.9336C76.345 32.9336 76.7904 32.8043 77.1736 32.5456C77.5663 32.287 77.8632 31.9422 78.0644 31.5111L79.0415 32.0428C78.8786 32.4163 78.6343 32.7516 78.3087 33.0485C77.983 33.3455 77.6094 33.5802 77.1879 33.7526C76.7665 33.925 76.3162 34.0112 75.8373 34.0112ZM83.878 33.925C83.1883 33.925 82.6567 33.7239 82.2831 33.3215C81.9095 32.9192 81.7227 32.3445 81.7227 31.5973V27.215H80.3003V26.1373H80.6595C80.9852 26.1373 81.2438 26.032 81.4354 25.8212C81.6269 25.6009 81.7227 25.3279 81.7227 25.0022V24.3556H82.8004V26.1373H84.4958V27.215H82.8004V31.5973C82.8004 31.856 82.8387 32.0859 82.9153 32.287C82.9919 32.4786 83.1213 32.6319 83.3033 32.7468C83.4948 32.8618 83.7487 32.9192 84.0648 32.9192C84.1414 32.9192 84.2324 32.9144 84.3378 32.9049C84.4432 32.8953 84.5342 32.8857 84.6108 32.8761V33.8388C84.4958 33.8675 84.3665 33.8867 84.2228 33.8963C84.0792 33.9154 83.9642 33.925 83.878 33.925ZM86.503 33.8388V26.1373H87.5807V27.4018L87.437 27.215C87.619 26.851 87.892 26.5636 88.256 26.3529C88.6296 26.1421 89.0798 26.0368 89.6066 26.0368H90.0951V27.1144H89.4198C88.8643 27.1144 88.4188 27.2868 88.0836 27.6316C87.7483 27.9765 87.5807 28.465 87.5807 29.0972V33.8388H86.503ZM91.358 33.8388V26.1373H92.4356V33.8388H91.358ZM91.358 24.7149V23.1343H92.4356V24.7149H91.358ZM98.1617 34.0112C97.4049 34.0112 96.7392 33.834 96.1645 33.4796C95.5897 33.1252 95.1395 32.6462 94.8138 32.0428C94.4881 31.4297 94.3253 30.74 94.3253 29.9737C94.3253 29.2074 94.4881 28.5225 94.8138 27.919C95.1395 27.3155 95.5897 26.8414 96.1645 26.4965C96.7392 26.1421 97.4049 25.9649 98.1617 25.9649C98.6406 25.9649 99.0908 26.0511 99.5123 26.2235C99.9338 26.396 100.307 26.6306 100.633 26.9276C100.959 27.215 101.203 27.5502 101.366 27.9334L100.389 28.4363C100.197 28.0244 99.905 27.6891 99.5123 27.4305C99.1196 27.1719 98.6694 27.0425 98.1617 27.0425C97.654 27.0425 97.1942 27.1719 96.7823 27.4305C96.38 27.6795 96.0591 28.0292 95.8196 28.4794C95.5897 28.92 95.4748 29.4229 95.4748 29.9881C95.4748 30.5436 95.5897 31.0465 95.8196 31.4968C96.0591 31.9374 96.38 32.287 96.7823 32.5456C97.1942 32.8043 97.654 32.9336 98.1617 32.9336C98.6694 32.9336 99.1148 32.8043 99.4979 32.5456C99.8907 32.287 100.188 31.9422 100.389 31.5111L101.366 32.0428C101.203 32.4163 100.959 32.7516 100.633 33.0485C100.307 33.3455 99.9338 33.5802 99.5123 33.7526C99.0908 33.925 98.6406 34.0112 98.1617 34.0112ZM103.415 33.8388V23.1343H107.093C107.792 23.1343 108.406 23.2732 108.932 23.551C109.459 23.8192 109.866 24.2024 110.154 24.7005C110.451 25.189 110.599 25.759 110.599 26.4103C110.599 27.0617 110.451 27.6316 110.154 28.1202C109.866 28.6087 109.459 28.9919 108.932 29.2696C108.415 29.5379 107.802 29.672 107.093 29.672H104.564V33.8388H103.415ZM104.564 28.5943H107.151C107.61 28.5943 108.013 28.5081 108.358 28.3357C108.702 28.1537 108.971 27.8999 109.162 27.5742C109.354 27.2389 109.45 26.8462 109.45 26.396C109.45 25.9458 109.354 25.5578 109.162 25.2321C108.971 24.9064 108.702 24.6574 108.358 24.485C108.013 24.303 107.61 24.212 107.151 24.212H104.564V28.5943ZM114.141 34.0112C113.653 34.0112 113.217 33.9202 112.834 33.7382C112.451 33.5466 112.149 33.288 111.929 32.9623C111.708 32.6366 111.598 32.2631 111.598 31.8416C111.598 31.4393 111.684 31.0753 111.857 30.7496C112.029 30.4143 112.298 30.1318 112.662 29.9019C113.026 29.672 113.49 29.5091 114.055 29.4133L117.073 28.9104V29.8875L114.314 30.3473C113.758 30.4431 113.356 30.6203 113.107 30.8789C112.867 31.1375 112.748 31.4441 112.748 31.7985C112.748 32.1433 112.882 32.4355 113.15 32.675C113.428 32.9144 113.782 33.0342 114.213 33.0342C114.74 33.0342 115.2 32.924 115.593 32.7037C115.985 32.4738 116.292 32.1673 116.512 31.7841C116.733 31.401 116.843 30.9747 116.843 30.5053V28.5512C116.843 28.0914 116.675 27.7179 116.34 27.4305C116.005 27.1431 115.569 26.9994 115.032 26.9994C114.563 26.9994 114.151 27.1192 113.797 27.3586C113.442 27.5885 113.179 27.8903 113.006 28.2639L112.029 27.7322C112.173 27.4065 112.398 27.1096 112.705 26.8414C113.021 26.5732 113.38 26.3624 113.782 26.2092C114.185 26.0463 114.601 25.9649 115.032 25.9649C115.597 25.9649 116.096 26.0751 116.527 26.2954C116.967 26.5157 117.307 26.8222 117.547 27.215C117.796 27.5981 117.92 28.0435 117.92 28.5512V33.8388H116.843V32.3014L117.001 32.4594C116.867 32.7468 116.656 33.0102 116.369 33.2497C116.091 33.4796 115.76 33.6664 115.377 33.8101C115.004 33.9442 114.592 34.0112 114.141 34.0112ZM120.295 36.9999C120.142 36.9999 119.984 36.9855 119.821 36.9568C119.668 36.9376 119.514 36.8993 119.361 36.8418V35.836C119.457 35.8456 119.577 35.86 119.72 35.8791C119.874 35.9079 120.027 35.9222 120.18 35.9222C120.649 35.9222 121.009 35.8216 121.258 35.6205C121.507 35.4289 121.751 35.0553 121.99 34.4998L122.479 33.3503L122.45 34.2986L119.189 26.1373H120.352L123.025 32.8761H122.723L125.381 26.1373H126.574L123.054 34.8159C122.9 35.1894 122.704 35.5439 122.465 35.8791C122.235 36.2144 121.943 36.4826 121.588 36.6838C121.234 36.8945 120.803 36.9999 120.295 36.9999Z" fill="white"/>
<g filter="url(#filter3_bd_160_11968)">
<rect x="203.852" y="14.3684" width="54.7796" height="26.9408" rx="13.4704" fill="url(#paint7_linear_160_11968)" fill-opacity="0.15" shape-rendering="crispEdges"/>
<rect x="204.301" y="14.8174" width="53.8816" height="26.0428" rx="13.0214" stroke="url(#paint8_linear_160_11968)" stroke-opacity="0.3" stroke-width="0.898026" shape-rendering="crispEdges"/>
</g>
<path d="M218.4 32.0899C217.832 32.0899 217.333 31.9713 216.902 31.7342C216.471 31.4972 216.137 31.1739 215.9 30.7644C215.663 30.3477 215.544 29.8735 215.544 29.3419V23.9322H216.406V29.3419C216.406 29.7298 216.489 30.0711 216.654 30.3656C216.827 30.653 217.06 30.8793 217.355 31.0446C217.656 31.2026 218.005 31.2816 218.4 31.2816C218.795 31.2816 219.14 31.2026 219.435 31.0446C219.736 30.8793 219.97 30.653 220.135 30.3656C220.307 30.0711 220.394 29.7298 220.394 29.3419V23.9322H221.256V29.3419C221.256 29.8735 221.137 30.3477 220.9 30.7644C220.663 31.1739 220.329 31.4972 219.898 31.7342C219.474 31.9713 218.975 32.0899 218.4 32.0899ZM223.122 31.9605V23.9322H223.876L226.894 28.3074H226.474L229.48 23.9322H230.234V31.9605H229.372V25.096L229.653 25.2038L226.7 29.482H226.657L223.715 25.2038L223.984 25.096V31.9605H223.122ZM232.13 31.9605V23.9322H232.993V28.6199L232.799 28.5229L236.84 23.9322H237.917L234.674 27.6177L234.717 27.0034L238.111 31.9605H237.077L234.34 28.0056L232.993 29.5359V31.9605H232.13ZM239.181 31.9605V23.9322H239.936L242.953 28.3074H242.533L245.539 23.9322H246.294V31.9605H245.432V25.096L245.712 25.2038L242.759 29.482H242.716L239.774 25.2038L240.043 25.096V31.9605H239.181Z" fill="white"/>
<rect x="0.898041" y="55.6776" width="271.204" height="67.352" rx="14.3684" fill="#0C0C14"/>
<path d="M78.5046 81.7615V79.2902H73.2457V78.1263L78.4758 71.0571H79.8265V78.1263H81.2202V79.2902H79.8265V81.7615H78.5046ZM74.309 78.6292L74.1078 78.1263H78.5046V72.2353L78.9213 72.3502L74.309 78.6292ZM87.0063 81.934C86.1538 81.934 85.4066 81.7041 84.7648 81.2443C84.1326 80.7749 83.6393 80.1283 83.2849 79.3045C82.9305 78.4712 82.7532 77.5037 82.7532 76.4021C82.7532 75.3005 82.9305 74.3379 83.2849 73.5141C83.6393 72.6807 84.1326 72.0341 84.7648 71.5743C85.397 71.1145 86.1394 70.8846 86.9919 70.8846C87.8445 70.8846 88.5868 71.1145 89.219 71.5743C89.8512 72.0341 90.3446 72.6807 90.699 73.5141C91.063 74.3379 91.245 75.3005 91.245 76.4021C91.245 77.5037 91.0678 78.4712 90.7133 79.3045C90.3589 80.1379 89.8608 80.7845 89.219 81.2443C88.5868 81.7041 87.8492 81.934 87.0063 81.934ZM87.0063 80.6264C87.581 80.6264 88.0791 80.454 88.5006 80.1092C88.9221 79.7547 89.2478 79.2614 89.4777 78.6292C89.7171 77.997 89.8369 77.2546 89.8369 76.4021C89.8369 75.5496 89.7171 74.8072 89.4777 74.175C89.2478 73.5428 88.9173 73.0543 88.4862 72.7094C88.0648 72.3646 87.5667 72.1922 86.9919 72.1922C86.4172 72.1922 85.9191 72.3646 85.4976 72.7094C85.0761 73.0543 84.7457 73.5428 84.5062 74.175C84.2763 74.8072 84.1613 75.5496 84.1613 76.4021C84.1613 77.2451 84.2763 77.9826 84.5062 78.6149C84.7457 79.2471 85.0761 79.7404 85.4976 80.0948C85.9287 80.4492 86.4316 80.6264 87.0063 80.6264ZM97.4038 81.934C96.5512 81.934 95.8041 81.7041 95.1623 81.2443C94.5301 80.7749 94.0368 80.1283 93.6823 79.3045C93.3279 78.4712 93.1507 77.5037 93.1507 76.4021C93.1507 75.3005 93.3279 74.3379 93.6823 73.5141C94.0368 72.6807 94.5301 72.0341 95.1623 71.5743C95.7945 71.1145 96.5369 70.8846 97.3894 70.8846C98.2419 70.8846 98.9843 71.1145 99.6165 71.5743C100.249 72.0341 100.742 72.6807 101.096 73.5141C101.46 74.3379 101.642 75.3005 101.642 76.4021C101.642 77.5037 101.465 78.4712 101.111 79.3045C100.756 80.1379 100.258 80.7845 99.6165 81.2443C98.9843 81.7041 98.2467 81.934 97.4038 81.934ZM97.4038 80.6264C97.9785 80.6264 98.4766 80.454 98.8981 80.1092C99.3195 79.7547 99.6452 79.2614 99.8751 78.6292C100.115 77.997 100.234 77.2546 100.234 76.4021C100.234 75.5496 100.115 74.8072 99.8751 74.175C99.6452 73.5428 99.3148 73.0543 98.8837 72.7094C98.4622 72.3646 97.9641 72.1922 97.3894 72.1922C96.8147 72.1922 96.3165 72.3646 95.8951 72.7094C95.4736 73.0543 95.1431 73.5428 94.9037 74.175C94.6738 74.8072 94.5588 75.5496 94.5588 76.4021C94.5588 77.2451 94.6738 77.9826 94.9037 78.6149C95.1431 79.2471 95.4736 79.7404 95.8951 80.0948C96.3261 80.4492 96.829 80.6264 97.4038 80.6264ZM106.262 81.7615V71.0571H107.67V81.7615H106.262ZM114.979 81.934C114.222 81.934 113.523 81.7999 112.881 81.5316C112.249 81.2539 111.693 80.8659 111.214 80.3678C110.745 79.8697 110.381 79.2854 110.122 78.6149C109.863 77.9443 109.734 77.2115 109.734 76.4165C109.734 75.6119 109.863 74.8743 110.122 74.2037C110.381 73.5332 110.745 72.9489 111.214 72.4508C111.683 71.9527 112.239 71.5695 112.881 71.3013C113.523 71.0235 114.222 70.8846 114.979 70.8846C115.716 70.8846 116.377 71.014 116.961 71.2726C117.555 71.5312 118.053 71.8665 118.456 72.2784C118.868 72.6903 119.16 73.1309 119.332 73.6003L118.039 74.1894C117.79 73.5955 117.402 73.1165 116.875 72.7525C116.348 72.379 115.716 72.1922 114.979 72.1922C114.231 72.1922 113.566 72.3694 112.981 72.7238C112.407 73.0782 111.956 73.5715 111.631 74.2037C111.305 74.836 111.142 75.5735 111.142 76.4165C111.142 77.2499 111.305 77.9826 111.631 78.6149C111.956 79.2471 112.407 79.7404 112.981 80.0948C113.566 80.4492 114.231 80.6264 114.979 80.6264C115.716 80.6264 116.348 80.4444 116.875 80.0804C117.402 79.7069 117.79 79.2231 118.039 78.6292L119.332 79.2183C119.16 79.6877 118.868 80.1283 118.456 80.5402C118.053 80.9521 117.555 81.2874 116.961 81.546C116.377 81.8046 115.716 81.934 114.979 81.934ZM121.247 81.7615V71.0571H125.026C125.735 71.0571 126.358 71.1912 126.894 71.4594C127.431 71.7276 127.847 72.1107 128.144 72.6089C128.451 73.107 128.604 73.6913 128.604 74.3618C128.604 75.0323 128.451 75.6166 128.144 76.1147C127.847 76.6033 127.431 76.9864 126.894 77.2642C126.367 77.5324 125.745 77.6665 125.026 77.6665H122.656V81.7615H121.247ZM122.656 76.3734H125.069C125.501 76.3734 125.874 76.292 126.19 76.1291C126.506 75.9663 126.751 75.7316 126.923 75.4251C127.095 75.1185 127.182 74.7641 127.182 74.3618C127.182 73.9499 127.095 73.5955 126.923 73.2985C126.751 72.992 126.506 72.7573 126.19 72.5945C125.874 72.4316 125.501 72.3502 125.069 72.3502H122.656V76.3734Z" fill="white"/>
<line x1="136.949" y1="67.6793" x2="136.949" y2="83.8438" stroke="#AAAAAA" stroke-width="0.898026"/>
<path d="M148.649 81.934C147.93 81.934 147.293 81.7903 146.738 81.5029C146.192 81.2155 145.761 80.8276 145.444 80.3391C145.138 79.841 144.985 79.2854 144.985 78.6723C144.985 77.9826 145.176 77.3792 145.559 76.8619C145.943 76.3446 146.469 75.9759 147.14 75.7555L147.111 76.1147C146.604 75.9136 146.206 75.5927 145.919 75.1521C145.641 74.7019 145.502 74.2181 145.502 73.7009C145.502 73.1549 145.636 72.6711 145.904 72.2496C146.182 71.8282 146.556 71.4977 147.025 71.2582C147.504 71.0092 148.045 70.8846 148.649 70.8846C149.252 70.8846 149.789 71.0044 150.258 71.2439C150.727 71.4833 151.096 71.8186 151.364 72.2496C151.642 72.6711 151.781 73.1549 151.781 73.7009C151.781 74.2469 151.632 74.7354 151.336 75.1664C151.048 75.5975 150.665 75.9184 150.186 76.1291L150.143 75.7555C150.823 75.9759 151.355 76.3494 151.738 76.8763C152.121 77.3935 152.313 77.9922 152.313 78.6723C152.313 79.2854 152.155 79.841 151.838 80.3391C151.532 80.8276 151.101 81.2155 150.545 81.5029C149.999 81.7903 149.367 81.934 148.649 81.934ZM148.649 80.7126C149.099 80.7126 149.492 80.6264 149.827 80.454C150.162 80.2816 150.421 80.0421 150.603 79.7356C150.794 79.4195 150.89 79.0603 150.89 78.658C150.89 78.2461 150.794 77.8869 150.603 77.5803C150.421 77.2642 150.162 77.0247 149.827 76.8619C149.492 76.6895 149.099 76.6033 148.649 76.6033C148.198 76.6033 147.801 76.6895 147.456 76.8619C147.121 77.0247 146.862 77.2642 146.68 77.5803C146.498 77.8869 146.407 78.2461 146.407 78.658C146.407 79.0603 146.498 79.4195 146.68 79.7356C146.862 80.0421 147.121 80.2816 147.456 80.454C147.801 80.6264 148.198 80.7126 148.649 80.7126ZM148.649 75.382C148.974 75.382 149.262 75.3101 149.511 75.1664C149.769 75.0227 149.975 74.8312 150.129 74.5917C150.282 74.3426 150.358 74.0553 150.358 73.7296C150.358 73.4039 150.282 73.1213 150.129 72.8819C149.975 72.6424 149.769 72.4556 149.511 72.3215C149.262 72.1778 148.974 72.106 148.649 72.106C148.313 72.106 148.016 72.1778 147.758 72.3215C147.499 72.4556 147.293 72.6424 147.14 72.8819C146.987 73.1213 146.91 73.4039 146.91 73.7296C146.91 74.0553 146.987 74.3426 147.14 74.5917C147.293 74.8312 147.499 75.0227 147.758 75.1664C148.016 75.3101 148.313 75.382 148.649 75.382ZM158.375 81.934C157.522 81.934 156.775 81.7041 156.133 81.2443C155.501 80.7749 155.008 80.1283 154.653 79.3045C154.299 78.4712 154.122 77.5037 154.122 76.4021C154.122 75.3005 154.299 74.3379 154.653 73.5141C155.008 72.6807 155.501 72.0341 156.133 71.5743C156.765 71.1145 157.508 70.8846 158.36 70.8846C159.213 70.8846 159.955 71.1145 160.587 71.5743C161.22 72.0341 161.713 72.6807 162.067 73.5141C162.431 74.3379 162.613 75.3005 162.613 76.4021C162.613 77.5037 162.436 78.4712 162.082 79.3045C161.727 80.1379 161.229 80.7845 160.587 81.2443C159.955 81.7041 159.218 81.934 158.375 81.934ZM158.375 80.6264C158.949 80.6264 159.448 80.454 159.869 80.1092C160.29 79.7547 160.616 79.2614 160.846 78.6292C161.086 77.997 161.205 77.2546 161.205 76.4021C161.205 75.5496 161.086 74.8072 160.846 74.175C160.616 73.5428 160.286 73.0543 159.855 72.7094C159.433 72.3646 158.935 72.1922 158.36 72.1922C157.786 72.1922 157.287 72.3646 156.866 72.7094C156.445 73.0543 156.114 73.5428 155.875 74.175C155.645 74.8072 155.53 75.5496 155.53 76.4021C155.53 77.2451 155.645 77.9826 155.875 78.6149C156.114 79.2471 156.445 79.7404 156.866 80.0948C157.297 80.4492 157.8 80.6264 158.375 80.6264ZM168.772 81.934C167.92 81.934 167.172 81.7041 166.531 81.2443C165.898 80.7749 165.405 80.1283 165.051 79.3045C164.696 78.4712 164.519 77.5037 164.519 76.4021C164.519 75.3005 164.696 74.3379 165.051 73.5141C165.405 72.6807 165.898 72.0341 166.531 71.5743C167.163 71.1145 167.905 70.8846 168.758 70.8846C169.61 70.8846 170.353 71.1145 170.985 71.5743C171.617 72.0341 172.11 72.6807 172.465 73.5141C172.829 74.3379 173.011 75.3005 173.011 76.4021C173.011 77.5037 172.834 78.4712 172.479 79.3045C172.125 80.1379 171.627 80.7845 170.985 81.2443C170.353 81.7041 169.615 81.934 168.772 81.934ZM168.772 80.6264C169.347 80.6264 169.845 80.454 170.266 80.1092C170.688 79.7547 171.014 79.2614 171.244 78.6292C171.483 77.997 171.603 77.2546 171.603 76.4021C171.603 75.5496 171.483 74.8072 171.244 74.175C171.014 73.5428 170.683 73.0543 170.252 72.7094C169.831 72.3646 169.333 72.1922 168.758 72.1922C168.183 72.1922 167.685 72.3646 167.263 72.7094C166.842 73.0543 166.512 73.5428 166.272 74.175C166.042 74.8072 165.927 75.5496 165.927 76.4021C165.927 77.2451 166.042 77.9826 166.272 78.6149C166.512 79.2471 166.842 79.7404 167.263 80.0948C167.695 80.4492 168.197 80.6264 168.772 80.6264ZM177.63 81.7615V71.0571H179.038V81.7615H177.63ZM186.347 81.934C185.59 81.934 184.891 81.7999 184.249 81.5316C183.617 81.2539 183.061 80.8659 182.582 80.3678C182.113 79.8697 181.749 79.2854 181.49 78.6149C181.232 77.9443 181.103 77.2115 181.103 76.4165C181.103 75.6119 181.232 74.8743 181.49 74.2037C181.749 73.5332 182.113 72.9489 182.582 72.4508C183.052 71.9527 183.607 71.5695 184.249 71.3013C184.891 71.0235 185.59 70.8846 186.347 70.8846C187.085 70.8846 187.746 71.014 188.33 71.2726C188.924 71.5312 189.422 71.8665 189.824 72.2784C190.236 72.6903 190.528 73.1309 190.701 73.6003L189.407 74.1894C189.158 73.5955 188.77 73.1165 188.244 72.7525C187.717 72.379 187.085 72.1922 186.347 72.1922C185.6 72.1922 184.934 72.3694 184.35 72.7238C183.775 73.0782 183.325 73.5715 182.999 74.2037C182.673 74.836 182.511 75.5735 182.511 76.4165C182.511 77.2499 182.673 77.9826 182.999 78.6149C183.325 79.2471 183.775 79.7404 184.35 80.0948C184.934 80.4492 185.6 80.6264 186.347 80.6264C187.085 80.6264 187.717 80.4444 188.244 80.0804C188.77 79.7069 189.158 79.2231 189.407 78.6292L190.701 79.2183C190.528 79.6877 190.236 80.1283 189.824 80.5402C189.422 80.9521 188.924 81.2874 188.33 81.546C187.746 81.8046 187.085 81.934 186.347 81.934ZM192.616 81.7615V71.0571H196.395C197.104 71.0571 197.726 71.1912 198.263 71.4594C198.799 71.7276 199.216 72.1107 199.513 72.6089C199.819 73.107 199.973 73.6913 199.973 74.3618C199.973 75.0323 199.819 75.6166 199.513 76.1147C199.216 76.6033 198.799 76.9864 198.263 77.2642C197.736 77.5324 197.113 77.6665 196.395 77.6665H194.024V81.7615H192.616ZM194.024 76.3734H196.438C196.869 76.3734 197.243 76.292 197.559 76.1291C197.875 75.9663 198.119 75.7316 198.291 75.4251C198.464 75.1185 198.55 74.7641 198.55 74.3618C198.55 73.9499 198.464 73.5955 198.291 73.2985C198.119 72.992 197.875 72.7573 197.559 72.5945C197.243 72.4316 196.869 72.3502 196.438 72.3502H194.024V76.3734Z" fill="#AAAAAA"/>
<path d="M15.2664 102.946C15.2664 100.962 16.8747 99.3536 18.8586 99.3536H202.056C204.04 99.3536 205.648 100.962 205.648 102.946C205.648 104.93 204.04 106.538 202.056 106.538H18.8586C16.8747 106.538 15.2664 104.93 15.2664 102.946Z" fill="#272727"/>
<path d="M15.2664 102.946C15.2664 100.962 16.8747 99.3536 18.8586 99.3536H128.623C130.607 99.3536 132.215 100.962 132.215 102.946C132.215 104.93 130.607 106.538 128.623 106.538H18.8585C16.8747 106.538 15.2664 104.93 15.2664 102.946Z" fill="url(#paint9_linear_160_11968)"/>
<path d="M235.966 107.075C235.464 107.075 235.018 106.964 234.63 106.741C234.242 106.511 233.937 106.199 233.714 105.803C233.491 105.401 233.38 104.941 233.38 104.424C233.38 104.137 233.412 103.853 233.477 103.573C233.549 103.293 233.653 103.016 233.79 102.743C233.933 102.47 234.106 102.197 234.307 101.924L236.57 98.9174H237.604L234.813 102.571L234.652 102.668C234.759 102.488 234.885 102.351 235.029 102.258C235.173 102.157 235.331 102.086 235.503 102.043C235.683 101.999 235.873 101.978 236.074 101.978C236.541 101.978 236.961 102.089 237.335 102.312C237.709 102.527 238.003 102.826 238.219 103.206C238.441 103.587 238.553 104.029 238.553 104.532C238.553 105.013 238.438 105.448 238.208 105.836C237.985 106.217 237.68 106.518 237.292 106.741C236.904 106.964 236.462 107.075 235.966 107.075ZM235.966 106.321C236.297 106.321 236.591 106.245 236.85 106.094C237.109 105.936 237.313 105.721 237.464 105.448C237.615 105.175 237.691 104.87 237.691 104.532C237.691 104.187 237.615 103.882 237.464 103.616C237.321 103.35 237.12 103.142 236.861 102.991C236.602 102.833 236.304 102.754 235.966 102.754C235.636 102.754 235.338 102.833 235.072 102.991C234.813 103.142 234.609 103.35 234.458 103.616C234.314 103.882 234.242 104.187 234.242 104.532C234.242 104.87 234.318 105.175 234.469 105.448C234.619 105.721 234.824 105.936 235.083 106.094C235.341 106.245 235.636 106.321 235.966 106.321ZM243.118 107.075C242.486 107.075 241.929 106.903 241.448 106.558C240.974 106.206 240.604 105.721 240.338 105.103C240.072 104.478 239.939 103.752 239.939 102.926C239.939 102.1 240.072 101.378 240.338 100.76C240.604 100.135 240.974 99.6502 241.448 99.3053C241.922 98.9605 242.475 98.7881 243.108 98.7881C243.74 98.7881 244.293 98.9605 244.767 99.3053C245.241 99.6502 245.611 100.135 245.877 100.76C246.143 101.378 246.276 102.1 246.276 102.926C246.276 103.752 246.143 104.478 245.877 105.103C245.619 105.728 245.252 106.213 244.778 106.558C244.304 106.903 243.751 107.075 243.118 107.075ZM243.118 106.267C243.578 106.267 243.981 106.127 244.325 105.847C244.67 105.566 244.94 105.178 245.134 104.683C245.328 104.18 245.425 103.594 245.425 102.926C245.425 102.258 245.328 101.676 245.134 101.18C244.94 100.678 244.67 100.29 244.325 100.017C243.981 99.7364 243.575 99.5963 243.108 99.5963C242.648 99.5963 242.246 99.7364 241.901 100.017C241.556 100.29 241.286 100.678 241.093 101.18C240.899 101.676 240.802 102.258 240.802 102.926C240.802 103.587 240.899 104.169 241.093 104.672C241.286 105.175 241.556 105.566 241.901 105.847C242.253 106.127 242.659 106.267 243.118 106.267ZM248.544 106.946L255.117 98.9174H256.162L249.589 106.946H248.544ZM249.718 102.991C249.33 102.991 248.978 102.897 248.662 102.711C248.346 102.517 248.091 102.262 247.897 101.946C247.71 101.629 247.617 101.277 247.617 100.889C247.617 100.502 247.71 100.149 247.897 99.8334C248.091 99.5101 248.346 99.255 248.662 99.0683C248.978 98.8815 249.33 98.7881 249.718 98.7881C250.106 98.7881 250.458 98.8815 250.774 99.0683C251.09 99.255 251.342 99.5101 251.529 99.8334C251.715 100.149 251.809 100.502 251.809 100.889C251.809 101.277 251.715 101.629 251.529 101.946C251.342 102.262 251.09 102.517 250.774 102.711C250.458 102.897 250.106 102.991 249.718 102.991ZM249.718 102.215C249.97 102.215 250.189 102.154 250.375 102.032C250.569 101.902 250.72 101.737 250.828 101.536C250.943 101.328 251.001 101.112 251.001 100.889C251.001 100.66 250.943 100.444 250.828 100.243C250.72 100.042 250.569 99.8801 250.375 99.7579C250.189 99.6286 249.97 99.564 249.718 99.564C249.474 99.564 249.251 99.6286 249.05 99.7579C248.856 99.8801 248.702 100.042 248.587 100.243C248.479 100.444 248.425 100.66 248.425 100.889C248.425 101.112 248.479 101.328 248.587 101.536C248.702 101.737 248.856 101.902 249.05 102.032C249.251 102.154 249.474 102.215 249.718 102.215ZM254.891 107.075C254.503 107.075 254.151 106.982 253.835 106.795C253.519 106.601 253.264 106.346 253.07 106.03C252.883 105.714 252.789 105.362 252.789 104.974C252.789 104.586 252.883 104.234 253.07 103.918C253.264 103.594 253.519 103.339 253.835 103.152C254.151 102.966 254.503 102.872 254.891 102.872C255.279 102.872 255.631 102.966 255.947 103.152C256.263 103.339 256.514 103.594 256.701 103.918C256.888 104.234 256.981 104.586 256.981 104.974C256.981 105.362 256.888 105.714 256.701 106.03C256.514 106.346 256.263 106.601 255.947 106.795C255.631 106.982 255.279 107.075 254.891 107.075ZM254.891 106.299C255.142 106.299 255.361 106.238 255.548 106.116C255.742 105.987 255.893 105.821 256.001 105.62C256.116 105.412 256.173 105.196 256.173 104.974C256.173 104.744 256.116 104.528 256.001 104.327C255.893 104.126 255.742 103.964 255.548 103.842C255.361 103.713 255.142 103.648 254.891 103.648C254.646 103.648 254.424 103.713 254.223 103.842C254.029 103.964 253.874 104.126 253.759 104.327C253.651 104.528 253.598 104.744 253.598 104.974C253.598 105.196 253.651 105.412 253.759 105.62C253.874 105.821 254.029 105.987 254.223 106.116C254.424 106.238 254.646 106.299 254.891 106.299Z" fill="#838386"/>
</g>
<defs>
<filter id="filter0_bd_160_11968" x="-44.0033" y="-40.4112" width="361.007" height="211.934" filterUnits="userSpaceOnUse" color-interpolation-filters="sRGB">
<feFlood flood-opacity="0" result="BackgroundImageFix"/>
<feGaussianBlur in="BackgroundImageFix" stdDeviation="11.2253"/>
<feComposite in2="SourceAlpha" operator="in" result="effect1_backgroundBlur_160_11968"/>
<feColorMatrix in="SourceAlpha" type="matrix" values="0 0 0 0 0 0 0 0 0 0 0 0 0 0 0 0 0 0 127 0" result="hardAlpha"/>
<feOffset dy="3.59211"/>
<feGaussianBlur stdDeviation="22.0016"/>
<feComposite in2="hardAlpha" operator="out"/>
<feColorMatrix type="matrix" values="0 0 0 0 0 0 0 0 0 0.0283334 0 0 0 0 0.283333 0 0 0 0.12 0"/>
<feBlend mode="normal" in2="effect1_backgroundBlur_160_11968" result="effect2_dropShadow_160_11968"/>
<feBlend mode="normal" in="SourceGraphic" in2="effect2_dropShadow_160_11968" result="shape"/>
</filter>
<filter id="filter1_dd_160_11968" x="11.8539" y="14.0092" width="30.1737" height="30.1737" filterUnits="userSpaceOnUse" color-interpolation-filters="sRGB">
<feFlood flood-opacity="0" result="BackgroundImageFix"/>
<feColorMatrix in="SourceAlpha" type="matrix" values="0 0 0 0 0 0 0 0 0 0 0 0 0 0 0 0 0 0 127 0" result="hardAlpha"/>
<feMorphology radius="0.628618" operator="dilate" in="SourceAlpha" result="effect1_dropShadow_160_11968"/>
<feOffset/>
<feComposite in2="hardAlpha" operator="out"/>
<feColorMatrix type="matrix" values="0 0 0 0 0.875521 0 0 0 0 0.968024 0 0 0 0 1 0 0 0 1 0"/>
<feBlend mode="normal" in2="BackgroundImageFix" result="effect1_dropShadow_160_11968"/>
<feColorMatrix in="SourceAlpha" type="matrix" values="0 0 0 0 0 0 0 0 0 0 0 0 0 0 0 0 0 0 127 0" result="hardAlpha"/>
<feMorphology radius="0.628618" operator="erode" in="SourceAlpha" result="effect2_dropShadow_160_11968"/>
<feOffset dy="1.25724"/>
<feGaussianBlur stdDeviation="1.57155"/>
<feComposite in2="hardAlpha" operator="out"/>
<feColorMatrix type="matrix" values="0 0 0 0 0.157827 0 0 0 0 0.231672 0 0 0 0 0.277507 0 0 0 1 0"/>
<feBlend mode="normal" in2="effect1_dropShadow_160_11968" result="effect2_dropShadow_160_11968"/>
<feBlend mode="normal" in="SourceGraphic" in2="effect2_dropShadow_160_11968" result="shape"/>
</filter>
<filter id="filter2_di_160_11968" x="16.8829" y="17.3232" width="20.1158" height="22.4592" filterUnits="userSpaceOnUse" color-interpolation-filters="sRGB">
<feFlood flood-opacity="0" result="BackgroundImageFix"/>
<feColorMatrix in="SourceAlpha" type="matrix" values="0 0 0 0 0 0 0 0 0 0 0 0 0 0 0 0 0 0 127 0" result="hardAlpha"/>
<feOffset dy="1.88586"/>
<feGaussianBlur stdDeviation="2.20016"/>
<feComposite in2="hardAlpha" operator="out"/>
<feColorMatrix type="matrix" values="0 0 0 0 0 0 0 0 0 0 0 0 0 0 0 0 0 0 0.1 0"/>
<feBlend mode="normal" in2="BackgroundImageFix" result="effect1_dropShadow_160_11968"/>
<feBlend mode="normal" in="SourceGraphic" in2="effect1_dropShadow_160_11968" result="shape"/>
<feColorMatrix in="SourceAlpha" type="matrix" values="0 0 0 0 0 0 0 0 0 0 0 0 0 0 0 0 0 0 127 0" result="hardAlpha"/>
<feOffset dy="1.25724"/>
<feGaussianBlur stdDeviation="1.25724"/>
<feComposite in2="hardAlpha" operator="arithmetic" k2="-1" k3="1"/>
<feColorMatrix type="matrix" values="0 0 0 0 0 0 0 0 0 0 0 0 0 0 0 0 0 0 0.5 0"/>
<feBlend mode="normal" in2="shape" result="effect2_innerShadow_160_11968"/>
</filter>
<filter id="filter3_bd_160_11968" x="159.849" y="-26.0428" width="142.786" height="114.947" filterUnits="userSpaceOnUse" color-interpolation-filters="sRGB">
<feFlood flood-opacity="0" result="BackgroundImageFix"/>
<feGaussianBlur in="BackgroundImageFix" stdDeviation="11.2253"/>
<feComposite in2="SourceAlpha" operator="in" result="effect1_backgroundBlur_160_11968"/>
<feColorMatrix in="SourceAlpha" type="matrix" values="0 0 0 0 0 0 0 0 0 0 0 0 0 0 0 0 0 0 127 0" result="hardAlpha"/>
<feOffset dy="3.59211"/>
<feGaussianBlur stdDeviation="22.0016"/>
<feComposite in2="hardAlpha" operator="out"/>
<feColorMatrix type="matrix" values="0 0 0 0 0 0 0 0 0 0.0283334 0 0 0 0 0.283333 0 0 0 0.12 0"/>
<feBlend mode="normal" in2="effect1_backgroundBlur_160_11968" result="effect2_dropShadow_160_11968"/>
<feBlend mode="normal" in="SourceGraphic" in2="effect2_dropShadow_160_11968" result="shape"/>
</filter>
<linearGradient id="paint0_linear_160_11968" x1="1.25601e-05" y1="-3.86068" x2="50.6769" y2="237.031" gradientUnits="userSpaceOnUse">
<stop stop-color="white" stop-opacity="0"/>
<stop offset="1" stop-color="white"/>
</linearGradient>
<linearGradient id="paint1_linear_160_11968" x1="-9.68514" y1="-10.6169" x2="40.4501" y2="194.082" gradientUnits="userSpaceOnUse">
<stop stop-color="white"/>
<stop offset="1" stop-color="white" stop-opacity="0"/>
</linearGradient>
<radialGradient id="paint2_angular_160_11968" cx="0" cy="0" r="1" gradientUnits="userSpaceOnUse" gradientTransform="translate(21.0587 8.80066) rotate(90) scale(8.80066 21.0587)">
<stop stop-color="#2D4557"/>
<stop offset="0.844076" stop-color="#79DFFF"/>
<stop offset="1" stop-color="#D1FFE1"/>
</radialGradient>
<radialGradient id="paint3_angular_160_11968" cx="0" cy="0" r="1" gradientUnits="userSpaceOnUse" gradientTransform="translate(30.3982 66.1845) rotate(90) scale(8.80066 21.0587)">
<stop stop-color="#2D4557"/>
<stop offset="0.844076" stop-color="#79DFFF"/>
<stop offset="1" stop-color="#D1FFE1"/>
</radialGradient>
<radialGradient id="paint4_radial_160_11968" cx="0" cy="0" r="1" gradientUnits="userSpaceOnUse" gradientTransform="translate(26.9408 19.1873) rotate(90) scale(23.7399 19.6668)">
<stop stop-color="#174360"/>
<stop offset="1" stop-color="#174360" stop-opacity="0.3"/>
</radialGradient>
<linearGradient id="paint5_linear_160_11968" x1="26.9408" y1="19.8377" x2="26.9408" y2="33.4963" gradientUnits="userSpaceOnUse">
<stop offset="0.735221" stop-color="#2D516B" stop-opacity="0"/>
<stop offset="1" stop-color="#274357" stop-opacity="0.8"/>
</linearGradient>
<linearGradient id="paint6_linear_160_11968" x1="26.9408" y1="15.2664" x2="26.9408" y2="40.4112" gradientUnits="userSpaceOnUse">
<stop stop-color="white"/>
<stop offset="1" stop-color="white" stop-opacity="0"/>
</linearGradient>
<linearGradient id="paint7_linear_160_11968" x1="203.852" y1="13.5291" x2="215.7" y2="65.5142" gradientUnits="userSpaceOnUse">
<stop stop-color="white" stop-opacity="0"/>
<stop offset="1" stop-color="white"/>
</linearGradient>
<linearGradient id="paint8_linear_160_11968" x1="201.909" y1="12.0604" x2="213.601" y2="56.1269" gradientUnits="userSpaceOnUse">
<stop stop-color="white"/>
<stop offset="1" stop-color="white" stop-opacity="0"/>
</linearGradient>
<linearGradient id="paint9_linear_160_11968" x1="15.2664" y1="102.946" x2="181.292" y2="102.946" gradientUnits="userSpaceOnUse">
<stop stop-color="#0B65DA"/>
<stop offset="1" stop-color="#3A99FF"/>
</linearGradient>
<clipPath id="clip0_160_11968">
<rect width="273" height="125.724" fill="white"/>
</clipPath>
<clipPath id="clip1_160_11968">
<rect x="14.3684" y="15.2664" width="25.1447" height="25.1447" rx="12.5724" fill="white"/>
</clipPath>
</defs>
</svg>
